<svg width="154" height="85" viewBox="0 0 154 85" fill="none" xmlns="http://www.w3.org/2000/svg">
<path fill-rule="evenodd" clip-rule="evenodd" d="M7.71362 30.522C8.81819 30.522 9.71362 31.4174 9.71362 32.522V80.8909H67.1791C68.2836 80.8909 69.1791 81.7864 69.1791 82.8909C69.1791 83.9955 68.2836 84.8909 67.1791 84.8909H7.71362C6.60905 84.8909 5.71362 83.9955 5.71362 82.8909V32.522C5.71362 31.4174 6.60905 30.522 7.71362 30.522Z" fill="#75ACC6"/>
<path fill-rule="evenodd" clip-rule="evenodd" d="M36.2861 0.398373C36.9963 -0.132791 37.9715 -0.132791 38.6818 0.398373L74.1656 26.936C75.0501 27.5976 75.2309 28.8509 74.5694 29.7355C73.9078 30.6201 72.6545 30.8008 71.7699 30.1393L37.4839 4.49746L3.19795 30.1393C2.31339 30.8008 1.06003 30.6201 0.398492 29.7355C-0.263049 28.8509 -0.0822617 27.5976 0.802293 26.936L36.2861 0.398373Z" fill="#75ACC6"/>
<path fill-rule="evenodd" clip-rule="evenodd" d="M26.3123 51.6172C26.3123 50.5126 27.2077 49.6172 28.3123 49.6172H46.6556C47.7601 49.6172 48.6556 50.5126 48.6556 51.6172V82.891C48.6556 83.9956 47.7601 84.891 46.6556 84.891H28.3123C27.2077 84.891 26.3123 83.9956 26.3123 82.891V51.6172ZM30.3123 53.6172V80.891H44.6556V53.6172H30.3123Z" fill="#75ACC6"/>
<path fill-rule="evenodd" clip-rule="evenodd" d="M29.6201 25.0044C29.6201 23.8998 30.5155 23.0044 31.6201 23.0044H43.3478C44.4524 23.0044 45.3478 23.8998 45.3478 25.0044V36.2059C45.3478 37.3104 44.4524 38.2059 43.3478 38.2059H31.6201C30.5155 38.2059 29.6201 37.3104 29.6201 36.2059V25.0044ZM33.6201 27.0044V34.2059H41.3478V27.0044H33.6201Z" fill="#75ACC6"/>
<path fill-rule="evenodd" clip-rule="evenodd" d="M0.375977 82.8911C0.375977 81.7865 1.27141 80.8911 2.37598 80.8911H73.3436C74.4482 80.8911 75.3436 81.7865 75.3436 82.8911C75.3436 83.9957 74.4482 84.8911 73.3436 84.8911H2.37598C1.27141 84.8911 0.375977 83.9957 0.375977 82.8911Z" fill="#75ACC6"/>
<path fill-rule="evenodd" clip-rule="evenodd" d="M69.209 57.2852C70.3136 57.2852 71.209 58.1806 71.209 59.2852V81.9136C71.209 83.0182 70.3136 83.9136 69.209 83.9136C68.1044 83.9136 67.209 83.0182 67.209 81.9136V59.2852C67.209 58.1806 68.1044 57.2852 69.209 57.2852Z" fill="#75ACC6"/>
<path fill-rule="evenodd" clip-rule="evenodd" d="M69.209 31.4993C70.3136 31.4993 71.209 32.3947 71.209 33.4993V44.2497C71.209 45.3542 70.3136 46.2497 69.209 46.2497C68.1044 46.2497 67.209 45.3542 67.209 44.2497V33.4993C67.209 32.3947 68.1044 31.4993 69.209 31.4993Z" fill="#75ACC6"/>
<path fill-rule="evenodd" clip-rule="evenodd" d="M69.209 49.9177C70.3136 49.9177 71.209 50.8132 71.209 51.9177V51.9934C71.209 53.0979 70.3136 53.9934 69.209 53.9934C68.1044 53.9934 67.209 53.0979 67.209 51.9934V51.9177C67.209 50.8132 68.1044 49.9177 69.209 49.9177Z" fill="#75ACC6"/>
<path fill-rule="evenodd" clip-rule="evenodd" d="M94.9946 49.6924C96.0992 49.6924 96.9946 50.5878 96.9946 51.6924V82.8159C96.9946 83.9205 96.0992 84.8159 94.9946 84.8159C93.8901 84.8159 92.9946 83.9205 92.9946 82.8159V51.6924C92.9946 50.5878 93.8901 49.6924 94.9946 49.6924Z" fill="#75ACC6"/>
<path fill-rule="evenodd" clip-rule="evenodd" d="M151.679 49.6924C152.783 49.6924 153.679 50.5878 153.679 51.6924V82.8159C153.679 83.9205 152.783 84.8159 151.679 84.8159C150.574 84.8159 149.679 83.9205 149.679 82.8159V51.6924C149.679 50.5878 150.574 49.6924 151.679 49.6924Z" fill="#75ACC6"/>
<path fill-rule="evenodd" clip-rule="evenodd" d="M122.623 32.9842C123.083 32.8087 123.591 32.8087 124.05 32.9842L152.392 43.8098C153.424 44.2039 153.941 45.3599 153.547 46.3917C153.153 47.4236 151.997 47.9406 150.965 47.5465L123.337 36.9935L95.7083 47.5465C94.6765 47.9406 93.5205 47.4236 93.1263 46.3917C92.7322 45.3599 93.2492 44.2039 94.281 43.8098L122.623 32.9842Z" fill="#75ACC6"/>
<path fill-rule="evenodd" clip-rule="evenodd" d="M100.588 51.542C100.588 50.4374 101.483 49.542 102.588 49.542H144.086C145.19 49.542 146.086 50.4374 146.086 51.542V82.8158C146.086 83.9204 145.19 84.8159 144.086 84.8159H102.588C101.483 84.8159 100.588 83.9204 100.588 82.8158V51.542ZM104.588 53.542V80.8159H142.086V53.542H104.588Z" fill="#75ACC6"/>
</svg>
