<svg width="133" height="86" viewBox="0 0 133 86" fill="none" xmlns="http://www.w3.org/2000/svg">
<path fill-rule="evenodd" clip-rule="evenodd" d="M7.71362 31.2739C8.81819 31.2739 9.71362 32.1694 9.71362 33.2739V80.8911H65.1791V33.2739C65.1791 32.1694 66.0745 31.2739 67.1791 31.2739C68.2836 31.2739 69.1791 32.1694 69.1791 33.2739V82.8911C69.1791 83.9957 68.2836 84.8911 67.1791 84.8911H7.71362C6.60905 84.8911 5.71362 83.9957 5.71362 82.8911V33.2739C5.71362 32.1694 6.60905 31.2739 7.71362 31.2739Z" fill="#75ACC6"/>
<path fill-rule="evenodd" clip-rule="evenodd" d="M36.2861 0.398373C36.9965 -0.13291 37.9719 -0.132779 38.6822 0.398694L71.8355 25.2073C72.7199 25.8691 72.9003 27.1225 72.2385 28.0068C71.5768 28.8912 70.3233 29.0717 69.439 28.4099L37.4836 4.49771L3.19795 30.1393C2.31339 30.8008 1.06003 30.6201 0.398492 29.7355C-0.263049 28.8509 -0.0822617 27.5976 0.802293 26.936L36.2861 0.398373Z" fill="#75ACC6"/>
<path fill-rule="evenodd" clip-rule="evenodd" d="M26.3123 51.6172C26.3123 50.5126 27.2077 49.6172 28.3123 49.6172H46.6556C47.7601 49.6172 48.6556 50.5126 48.6556 51.6172V82.891C48.6556 83.9956 47.7601 84.891 46.6556 84.891H28.3123C27.2077 84.891 26.3123 83.9956 26.3123 82.891V51.6172ZM30.3123 53.6172V80.891H44.6556V53.6172H30.3123Z" fill="#75ACC6"/>
<path fill-rule="evenodd" clip-rule="evenodd" d="M29.6201 25.0044C29.6201 23.8998 30.5155 23.0044 31.6201 23.0044H43.3478C44.4524 23.0044 45.3478 23.8998 45.3478 25.0044V36.2059C45.3478 37.3104 44.4524 38.2059 43.3478 38.2059H31.6201C30.5155 38.2059 29.6201 37.3104 29.6201 36.2059V25.0044ZM33.6201 27.0044V34.2059H41.3478V27.0044H33.6201Z" fill="#75ACC6"/>
<path fill-rule="evenodd" clip-rule="evenodd" d="M0.375977 82.8911C0.375977 81.7865 1.27141 80.8911 2.37598 80.8911H67.179C68.2836 80.8911 69.179 81.7865 69.179 82.8911C69.179 83.9957 68.2836 84.8911 67.179 84.8911H2.37598C1.27141 84.8911 0.375977 83.9957 0.375977 82.8911Z" fill="#75ACC6"/>
<path fill-rule="evenodd" clip-rule="evenodd" d="M68.6372 26.8086C68.6372 25.704 69.5326 24.8086 70.6372 24.8086H116.27C117.375 24.8086 118.27 25.704 118.27 26.8086C118.27 27.9132 117.375 28.8086 116.27 28.8086H70.6372C69.5326 28.8086 68.6372 27.9132 68.6372 26.8086Z" fill="#75ACC6"/>
<path fill-rule="evenodd" clip-rule="evenodd" d="M72.772 50.6399C72.772 49.5353 73.6674 48.6399 74.772 48.6399H116.27C117.375 48.6399 118.27 49.5353 118.27 50.6399V82.8911C118.27 83.9956 117.375 84.8911 116.27 84.8911H74.772C73.6674 84.8911 72.772 83.9956 72.772 82.8911V50.6399ZM76.772 52.6399V80.8911H114.27V52.6399H76.772Z" fill="#75ACC6"/>
<path fill-rule="evenodd" clip-rule="evenodd" d="M72.772 43.5732C72.772 42.4687 73.6674 41.5732 74.772 41.5732H130.403C131.508 41.5732 132.403 42.4687 132.403 43.5732C132.403 44.6778 131.508 45.5732 130.403 45.5732H74.772C73.6674 45.5732 72.772 44.6778 72.772 43.5732Z" fill="#75ACC6"/>
<path fill-rule="evenodd" clip-rule="evenodd" d="M114.954 25.303C115.785 24.5759 117.049 24.6606 117.776 25.4921L132.435 42.2567C133.162 43.0882 133.078 44.3517 132.246 45.0788C131.415 45.8059 130.151 45.7213 129.424 44.8897L114.764 28.1252C114.037 27.2936 114.122 26.0301 114.954 25.303Z" fill="#75ACC6"/>
<path fill-rule="evenodd" clip-rule="evenodd" d="M123.562 71.4187C124.667 71.4187 125.562 72.3141 125.562 73.4187V83.267C125.562 84.3715 124.667 85.267 123.562 85.267C122.458 85.267 121.562 84.3715 121.562 83.267V73.4187C121.562 72.3141 122.458 71.4187 123.562 71.4187Z" fill="#75ACC6"/>
<path fill-rule="evenodd" clip-rule="evenodd" d="M123.562 48.6399C124.667 48.6399 125.562 49.5353 125.562 50.6399V59.135C125.562 60.2395 124.667 61.135 123.562 61.135C122.458 61.135 121.562 60.2395 121.562 59.135V50.6399C121.562 49.5353 122.458 48.6399 123.562 48.6399Z" fill="#75ACC6"/>
<path fill-rule="evenodd" clip-rule="evenodd" d="M123.562 63.9761C124.667 63.9761 125.562 64.8715 125.562 65.9761V66.2024C125.562 67.307 124.667 68.2024 123.562 68.2024C122.458 68.2024 121.562 67.307 121.562 66.2024V65.9761C121.562 64.8715 122.458 63.9761 123.562 63.9761Z" fill="#75ACC6"/>
</svg>
