<svg width="120" height="104" viewBox="0 0 120 104" fill="none" xmlns="http://www.w3.org/2000/svg">
<g opacity="0.5">
<path fill-rule="evenodd" clip-rule="evenodd" d="M7.42627 30.2742C8.53084 30.2742 9.42627 31.1696 9.42627 32.2742V99.597L110.379 99.247C111.483 99.2432 112.382 100.135 112.386 101.24C112.39 102.345 111.497 103.243 110.393 103.247L7.4332 103.604C6.90157 103.606 6.39108 103.396 6.01451 103.021C5.63794 102.645 5.42627 102.136 5.42627 101.604V32.2742C5.42627 31.1696 6.3217 30.2742 7.42627 30.2742Z" fill="#75ACC6"/>
<path fill-rule="evenodd" clip-rule="evenodd" d="M58.9631 0.166906C59.4734 -0.0557616 60.0535 -0.05563 60.5637 0.167269L118.255 25.3716C119.267 25.8138 119.729 26.9928 119.287 28.005C118.845 29.0172 117.666 29.4793 116.654 29.0371L59.7625 4.18232L2.79987 29.0374C1.78748 29.4792 0.608671 29.0166 0.166924 28.0042C-0.274823 26.9918 0.187774 25.813 1.20016 25.3713L58.9631 0.166906Z" fill="#75ACC6"/>
<path fill-rule="evenodd" clip-rule="evenodd" d="M52.7649 24.8486C52.7649 23.7441 53.6603 22.8486 54.7649 22.8486H65.6892C66.7937 22.8486 67.6892 23.7441 67.6892 24.8486V35.4873C67.6892 36.5919 66.7937 37.4873 65.6892 37.4873H54.7649C53.6603 37.4873 52.7649 36.5919 52.7649 35.4873V24.8486ZM56.7649 26.8486V33.4873H63.6892V26.8486H56.7649Z" fill="#75ACC6"/>
<path d="M30.3459 101.247H112.885" stroke="#75ACC6" stroke-width="4" stroke-miterlimit="10" stroke-linecap="round" stroke-linejoin="round"/>
<path fill-rule="evenodd" clip-rule="evenodd" d="M112.885 76.8271C113.989 76.8271 114.885 77.7226 114.885 78.8271V100.319C114.885 101.423 113.989 102.319 112.885 102.319C111.78 102.319 110.885 101.423 110.885 100.319V78.8271C110.885 77.7226 111.78 76.8271 112.885 76.8271Z" fill="#75ACC6"/>
<path fill-rule="evenodd" clip-rule="evenodd" d="M112.885 30.9167C113.989 30.9167 114.885 31.8122 114.885 32.9167V64.5471C114.885 65.6517 113.989 66.5471 112.885 66.5471C111.78 66.5471 110.885 65.6517 110.885 64.5471V32.9167C110.885 31.8122 111.78 30.9167 112.885 30.9167Z" fill="#75ACC6"/>
<path fill-rule="evenodd" clip-rule="evenodd" d="M112.885 69.83C113.989 69.83 114.885 70.7254 114.885 71.83V71.9021C114.885 73.0066 113.989 73.9021 112.885 73.9021C111.78 73.9021 110.885 73.0066 110.885 71.9021V71.83C110.885 70.7254 111.78 69.83 112.885 69.83Z" fill="#75ACC6"/>
<path fill-rule="evenodd" clip-rule="evenodd" d="M45 66C45 64.8954 45.8954 64 47 64H101C102.105 64 103 64.8954 103 66V101C103 102.105 102.105 103 101 103H47C45.8954 103 45 102.105 45 101V66ZM49 68V99H99V68H49Z" fill="#75ACC6"/>
<path fill-rule="evenodd" clip-rule="evenodd" d="M13.3652 50.53C13.3652 49.4255 14.2607 48.53 15.3652 48.53H103.475C104.58 48.53 105.475 49.4255 105.475 50.53C105.475 51.6346 104.58 52.53 103.475 52.53H15.3652C14.2607 52.53 13.3652 51.6346 13.3652 50.53Z" fill="#75ACC6"/>
<path fill-rule="evenodd" clip-rule="evenodd" d="M15 66C15 64.8954 15.8954 64 17 64H36C37.1046 64 38 64.8954 38 66V101C38 102.105 37.1046 103 36 103H17C15.8954 103 15 102.105 15 101V66ZM19 68V99H34V68H19Z" fill="#75ACC6"/>
</g>
</svg>
