<svg width="76" height="85" viewBox="0 0 76 85" fill="none" xmlns="http://www.w3.org/2000/svg">
<path fill-rule="evenodd" clip-rule="evenodd" d="M7.71362 30.5503C8.81819 30.5503 9.71362 31.4457 9.71362 32.5503V80.9193H67.1791C68.2836 80.9193 69.1791 81.8147 69.1791 82.9193C69.1791 84.0238 68.2836 84.9193 67.1791 84.9193H7.71362C6.60905 84.9193 5.71362 84.0238 5.71362 82.9193V32.5503C5.71362 31.4457 6.60905 30.5503 7.71362 30.5503Z" fill="#75ACC6"/>
<path fill-rule="evenodd" clip-rule="evenodd" d="M36.2861 0.426449C36.9963 -0.104715 37.9715 -0.104715 38.6818 0.426449L74.1656 26.9641C75.0501 27.6257 75.2309 28.879 74.5694 29.7636C73.9078 30.6481 72.6545 30.8289 71.7699 30.1674L37.4839 4.52554L3.19795 30.1674C2.31339 30.8289 1.06003 30.6481 0.398492 29.7636C-0.263049 28.879 -0.0822617 27.6257 0.802293 26.9641L36.2861 0.426449Z" fill="#75ACC6"/>
<path fill-rule="evenodd" clip-rule="evenodd" d="M26.3123 51.6453C26.3123 50.5407 27.2077 49.6453 28.3123 49.6453H46.6556C47.7601 49.6453 48.6556 50.5407 48.6556 51.6453V82.9191C48.6556 84.0237 47.7601 84.9191 46.6556 84.9191H28.3123C27.2077 84.9191 26.3123 84.0237 26.3123 82.9191V51.6453ZM30.3123 53.6453V80.9191H44.6556V53.6453H30.3123Z" fill="#75ACC6"/>
<path fill-rule="evenodd" clip-rule="evenodd" d="M29.6201 25.0325C29.6201 23.9279 30.5155 23.0325 31.6201 23.0325H43.3478C44.4524 23.0325 45.3478 23.9279 45.3478 25.0325V36.2339C45.3478 37.3385 44.4524 38.2339 43.3478 38.2339H31.6201C30.5155 38.2339 29.6201 37.3385 29.6201 36.2339V25.0325ZM33.6201 27.0325V34.2339H41.3478V27.0325H33.6201Z" fill="#75ACC6"/>
<path fill-rule="evenodd" clip-rule="evenodd" d="M0.375977 82.9192C0.375977 81.8146 1.27141 80.9192 2.37598 80.9192H73.3436C74.4482 80.9192 75.3436 81.8146 75.3436 82.9192C75.3436 84.0238 74.4482 84.9192 73.3436 84.9192H2.37598C1.27141 84.9192 0.375977 84.0238 0.375977 82.9192Z" fill="#75ACC6"/>
<path fill-rule="evenodd" clip-rule="evenodd" d="M68.833 57.2383C69.9376 57.2383 70.833 58.1337 70.833 59.2383V81.8667C70.833 82.9713 69.9376 83.8667 68.833 83.8667C67.7284 83.8667 66.833 82.9713 66.833 81.8667V59.2383C66.833 58.1337 67.7284 57.2383 68.833 57.2383Z" fill="#75ACC6"/>
<path fill-rule="evenodd" clip-rule="evenodd" d="M68.833 31.3772C69.9376 31.3772 70.833 32.2726 70.833 33.3772V44.2028C70.833 45.3073 69.9376 46.2028 68.833 46.2028C67.7284 46.2028 66.833 45.3073 66.833 44.2028V33.3772C66.833 32.2726 67.7284 31.3772 68.833 31.3772Z" fill="#75ACC6"/>
<path fill-rule="evenodd" clip-rule="evenodd" d="M68.833 49.7957C69.9376 49.7957 70.833 50.6911 70.833 51.7957V52.2473C70.833 53.3518 69.9376 54.2473 68.833 54.2473C67.7284 54.2473 66.833 53.3518 66.833 52.2473V51.7957C66.833 50.6911 67.7284 49.7957 68.833 49.7957Z" fill="#75ACC6"/>
</svg>
