<svg width="46" height="38" viewBox="0 0 46 38" fill="none" xmlns="http://www.w3.org/2000/svg">
<path d="M8.85067 37.2443L0.570575 28.9642L9.05258 20.4822L28.9642 0.570574L41.8933 13.4996C45.5598 17.1662 45.5602 23.0916 41.9316 26.7584C41.9312 26.7588 41.9309 26.7592 41.9305 26.7596L41.4546 27.2355H30.9661V26.0581C30.9661 25.8174 30.8508 25.6186 30.7221 25.49C30.5934 25.3613 30.3946 25.246 30.154 25.246H28.3596C28.119 25.246 27.9202 25.3613 27.7915 25.49C27.6628 25.6186 27.5475 25.8174 27.5475 26.0581V30.9716L26.8701 30.4832V27.7355V27.2355H26.3701H19.6606C18.9665 27.2355 18.3361 27.5336 17.8637 28.006L17.8637 28.006L17.8594 28.0104L8.85067 37.2443Z" fill="#26DEFF" stroke="#26DEFF"/>
<path d="M30.4269 27.7357V26.0193C30.4269 25.8633 30.2709 25.7073 30.1149 25.7073H28.3205C28.1644 25.7073 28.0084 25.8633 28.0084 26.0193V31.9487L26.331 30.7394V27.7357H19.6214C19.0753 27.7357 18.5682 27.9698 18.1781 28.3599L8.81592 37.9561H13.614L20.0505 31.5196L21.962 33.4311C25.8239 37.293 32.0653 37.293 35.9272 33.4311L41.6226 27.7357H30.4269Z" fill="#135C7D"/>
</svg>
