<svg width="603" height="150" viewBox="0 0 603 150" fill="none" xmlns="http://www.w3.org/2000/svg">
<path d="M39.6418 125.928C39.6951 125.843 39.7698 125.8 39.8658 125.8H41.3378C41.3911 125.8 41.4338 125.821 41.4658 125.864C41.5085 125.896 41.5298 125.939 41.5298 125.992V136.808C41.5298 136.861 41.5085 136.909 41.4658 136.952C41.4338 136.984 41.3911 137 41.3378 137H39.8658C39.8125 137 39.7645 136.984 39.7218 136.952C39.6898 136.909 39.6738 136.861 39.6738 136.808V129.176C39.6738 129.144 39.6578 129.123 39.6258 129.112C39.6045 129.101 39.5885 129.112 39.5778 129.144L37.5778 132.216C37.5245 132.301 37.4498 132.344 37.3538 132.344H36.6178C36.5218 132.344 36.4471 132.301 36.3938 132.216L34.3778 129.16C34.3671 129.128 34.3458 129.117 34.3138 129.128C34.2925 129.139 34.2818 129.16 34.2818 129.192V136.808C34.2818 136.861 34.2605 136.909 34.2178 136.952C34.1858 136.984 34.1431 137 34.0898 137H32.6178C32.5645 137 32.5165 136.984 32.4738 136.952C32.4418 136.909 32.4258 136.861 32.4258 136.808V125.992C32.4258 125.939 32.4418 125.896 32.4738 125.864C32.5165 125.821 32.5645 125.8 32.6178 125.8H34.0898C34.1858 125.8 34.2605 125.843 34.3138 125.928L36.9218 129.88C36.9431 129.901 36.9645 129.912 36.9858 129.912C37.0071 129.912 37.0231 129.901 37.0338 129.88L39.6418 125.928ZM44.7433 127.704C44.4126 127.704 44.1406 127.597 43.9273 127.384C43.714 127.171 43.6073 126.899 43.6073 126.568C43.6073 126.237 43.714 125.965 43.9273 125.752C44.1406 125.539 44.4126 125.432 44.7433 125.432C45.074 125.432 45.346 125.539 45.5593 125.752C45.7726 125.965 45.8793 126.237 45.8793 126.568C45.8793 126.899 45.7726 127.171 45.5593 127.384C45.346 127.597 45.074 127.704 44.7433 127.704ZM43.9753 137C43.922 137 43.874 136.984 43.8313 136.952C43.7993 136.909 43.7833 136.861 43.7833 136.808V129C43.7833 128.947 43.7993 128.904 43.8313 128.872C43.874 128.829 43.922 128.808 43.9753 128.808H45.4473C45.5006 128.808 45.5433 128.829 45.5753 128.872C45.618 128.904 45.6393 128.947 45.6393 129V136.808C45.6393 136.861 45.618 136.909 45.5753 136.952C45.5433 136.984 45.5006 137 45.4473 137H43.9753ZM51.6854 128.696C52.5494 128.696 53.2374 128.952 53.7494 129.464C54.2721 129.976 54.5334 130.675 54.5334 131.56V136.808C54.5334 136.861 54.5121 136.909 54.4694 136.952C54.4374 136.984 54.3948 137 54.3414 137H52.8694C52.8161 137 52.7681 136.984 52.7254 136.952C52.6934 136.909 52.6774 136.861 52.6774 136.808V131.944C52.6774 131.453 52.5388 131.059 52.2614 130.76C51.9841 130.451 51.6161 130.296 51.1574 130.296C50.6988 130.296 50.3254 130.445 50.0374 130.744C49.7601 131.043 49.6214 131.437 49.6214 131.928V136.808C49.6214 136.861 49.6001 136.909 49.5574 136.952C49.5254 136.984 49.4828 137 49.4294 137H47.9574C47.9041 137 47.8561 136.984 47.8134 136.952C47.7814 136.909 47.7654 136.861 47.7654 136.808V129.016C47.7654 128.963 47.7814 128.92 47.8134 128.888C47.8561 128.845 47.9041 128.824 47.9574 128.824H49.4294C49.4828 128.824 49.5254 128.845 49.5574 128.888C49.6001 128.92 49.6214 128.963 49.6214 129.016V129.528C49.6214 129.56 49.6321 129.581 49.6534 129.592C49.6748 129.603 49.6908 129.592 49.7014 129.56C50.1388 128.984 50.8001 128.696 51.6854 128.696ZM57.5246 127.704C57.1939 127.704 56.9219 127.597 56.7086 127.384C56.4952 127.171 56.3886 126.899 56.3886 126.568C56.3886 126.237 56.4952 125.965 56.7086 125.752C56.9219 125.539 57.1939 125.432 57.5246 125.432C57.8552 125.432 58.1272 125.539 58.3406 125.752C58.5539 125.965 58.6606 126.237 58.6606 126.568C58.6606 126.899 58.5539 127.171 58.3406 127.384C58.1272 127.597 57.8552 127.704 57.5246 127.704ZM56.7566 137C56.7032 137 56.6552 136.984 56.6126 136.952C56.5806 136.909 56.5646 136.861 56.5646 136.808V129C56.5646 128.947 56.5806 128.904 56.6126 128.872C56.6552 128.829 56.7032 128.808 56.7566 128.808H58.2286C58.2819 128.808 58.3246 128.829 58.3566 128.872C58.3992 128.904 58.4206 128.947 58.4206 129V136.808C58.4206 136.861 58.3992 136.909 58.3566 136.952C58.3246 136.984 58.2819 137 58.2286 137H56.7566ZM69.2987 128.696C70.12 128.696 70.76 128.947 71.2187 129.448C71.688 129.939 71.9227 130.627 71.9227 131.512V136.808C71.9227 136.861 71.9014 136.909 71.8587 136.952C71.8267 136.984 71.784 137 71.7307 137H70.2747C70.2214 137 70.1734 136.984 70.1307 136.952C70.0987 136.909 70.0827 136.861 70.0827 136.808V131.896C70.0827 131.405 69.9494 131.016 69.6827 130.728C69.4267 130.44 69.08 130.296 68.6427 130.296C68.2054 130.296 67.848 130.44 67.5707 130.728C67.2934 131.016 67.1547 131.4 67.1547 131.88V136.808C67.1547 136.861 67.1334 136.909 67.0907 136.952C67.0587 136.984 67.016 137 66.9627 137H65.5067C65.4534 137 65.4054 136.984 65.3627 136.952C65.3307 136.909 65.3147 136.861 65.3147 136.808V131.896C65.3147 131.405 65.1814 131.016 64.9147 130.728C64.648 130.44 64.296 130.296 63.8587 130.296C63.4534 130.296 63.1174 130.413 62.8507 130.648C62.5947 130.883 62.4454 131.203 62.4027 131.608V136.808C62.4027 136.861 62.3814 136.909 62.3387 136.952C62.3067 136.984 62.264 137 62.2107 137H60.7387C60.6854 137 60.6374 136.984 60.5947 136.952C60.5627 136.909 60.5467 136.861 60.5467 136.808V129.016C60.5467 128.963 60.5627 128.92 60.5947 128.888C60.6374 128.845 60.6854 128.824 60.7387 128.824H62.2107C62.264 128.824 62.3067 128.845 62.3387 128.888C62.3814 128.92 62.4027 128.963 62.4027 129.016V129.544C62.4027 129.576 62.4134 129.597 62.4347 129.608C62.456 129.619 62.4774 129.608 62.4987 129.576C62.7334 129.277 63.0214 129.059 63.3627 128.92C63.7147 128.771 64.104 128.696 64.5307 128.696C65.0534 128.696 65.512 128.803 65.9067 129.016C66.3014 129.229 66.6054 129.539 66.8187 129.944C66.8507 129.987 66.888 129.987 66.9307 129.944C67.1654 129.517 67.4907 129.203 67.9067 129C68.3227 128.797 68.7867 128.696 69.2987 128.696ZM78.6443 129.016C78.6443 128.963 78.6603 128.92 78.6923 128.888C78.735 128.845 78.783 128.824 78.8363 128.824H80.2923C80.3456 128.824 80.3883 128.845 80.4203 128.888C80.463 128.92 80.4843 128.963 80.4843 129.016V136.808C80.4843 136.861 80.463 136.909 80.4203 136.952C80.3883 136.984 80.3456 137 80.2923 137H78.8363C78.783 137 78.735 136.984 78.6923 136.952C78.6603 136.909 78.6443 136.861 78.6443 136.808V136.296C78.6443 136.264 78.6336 136.243 78.6123 136.232C78.591 136.221 78.5696 136.232 78.5483 136.264C78.111 136.829 77.455 137.112 76.5803 137.112C75.7696 137.112 75.087 136.877 74.5323 136.408C73.9883 135.939 73.7163 135.272 73.7163 134.408V129.016C73.7163 128.963 73.7323 128.92 73.7643 128.888C73.807 128.845 73.855 128.824 73.9083 128.824H75.3803C75.4336 128.824 75.4763 128.845 75.5083 128.888C75.551 128.92 75.5723 128.963 75.5723 129.016V133.88C75.5723 134.381 75.7003 134.781 75.9563 135.08C76.223 135.379 76.591 135.528 77.0603 135.528C77.5403 135.528 77.9243 135.379 78.2123 135.08C78.5003 134.781 78.6443 134.381 78.6443 133.88V129.016ZM91.2206 128.696C92.0419 128.696 92.6819 128.947 93.1406 129.448C93.6099 129.939 93.8446 130.627 93.8446 131.512V136.808C93.8446 136.861 93.8232 136.909 93.7806 136.952C93.7486 136.984 93.7059 137 93.6526 137H92.1966C92.1432 137 92.0952 136.984 92.0526 136.952C92.0206 136.909 92.0046 136.861 92.0046 136.808V131.896C92.0046 131.405 91.8712 131.016 91.6046 130.728C91.3486 130.44 91.0019 130.296 90.5646 130.296C90.1272 130.296 89.7699 130.44 89.4926 130.728C89.2152 131.016 89.0766 131.4 89.0766 131.88V136.808C89.0766 136.861 89.0552 136.909 89.0126 136.952C88.9806 136.984 88.9379 137 88.8846 137H87.4286C87.3752 137 87.3272 136.984 87.2846 136.952C87.2526 136.909 87.2366 136.861 87.2366 136.808V131.896C87.2366 131.405 87.1032 131.016 86.8366 130.728C86.5699 130.44 86.2179 130.296 85.7806 130.296C85.3752 130.296 85.0392 130.413 84.7726 130.648C84.5166 130.883 84.3672 131.203 84.3246 131.608V136.808C84.3246 136.861 84.3032 136.909 84.2606 136.952C84.2286 136.984 84.1859 137 84.1326 137H82.6606C82.6072 137 82.5592 136.984 82.5166 136.952C82.4846 136.909 82.4686 136.861 82.4686 136.808V129.016C82.4686 128.963 82.4846 128.92 82.5166 128.888C82.5592 128.845 82.6072 128.824 82.6606 128.824H84.1326C84.1859 128.824 84.2286 128.845 84.2606 128.888C84.3032 128.92 84.3246 128.963 84.3246 129.016V129.544C84.3246 129.576 84.3352 129.597 84.3566 129.608C84.3779 129.619 84.3992 129.608 84.4206 129.576C84.6552 129.277 84.9432 129.059 85.2846 128.92C85.6366 128.771 86.0259 128.696 86.4526 128.696C86.9752 128.696 87.4339 128.803 87.8286 129.016C88.2232 129.229 88.5272 129.539 88.7406 129.944C88.7726 129.987 88.8099 129.987 88.8526 129.944C89.0872 129.517 89.4126 129.203 89.8286 129C90.2446 128.797 90.7086 128.696 91.2206 128.696Z" fill="#135C7D"/>
<path d="M271.268 137C271.162 137 271.092 136.947 271.06 136.84L270.532 135.128C270.511 135.085 270.484 135.064 270.452 135.064H266.228C266.196 135.064 266.17 135.085 266.148 135.128L265.62 136.84C265.588 136.947 265.519 137 265.412 137H263.812C263.748 137 263.7 136.984 263.668 136.952C263.636 136.909 263.631 136.851 263.652 136.776L267.124 125.96C267.156 125.853 267.226 125.8 267.332 125.8H269.332C269.439 125.8 269.508 125.853 269.54 125.96L273.028 136.776C273.039 136.797 273.044 136.824 273.044 136.856C273.044 136.952 272.986 137 272.868 137H271.268ZM266.644 133.512C266.634 133.576 266.655 133.608 266.708 133.608H269.956C270.02 133.608 270.042 133.576 270.02 133.512L268.372 128.152C268.362 128.109 268.346 128.088 268.324 128.088C268.303 128.088 268.287 128.109 268.276 128.152L266.644 133.512ZM276.028 137C275.921 137 275.852 136.947 275.82 136.84L273.244 129.032C273.233 129.011 273.228 128.984 273.228 128.952C273.228 128.856 273.287 128.808 273.404 128.808H275.036C275.153 128.808 275.228 128.861 275.26 128.968L276.812 134.312C276.823 134.344 276.839 134.36 276.86 134.36C276.881 134.36 276.897 134.344 276.908 134.312L278.46 128.968C278.492 128.861 278.567 128.808 278.684 128.808L280.316 128.84C280.38 128.84 280.428 128.861 280.46 128.904C280.492 128.936 280.497 128.989 280.476 129.064L277.916 136.84C277.884 136.947 277.815 137 277.708 137H276.028ZM288.341 131.992C288.384 132.259 288.405 132.557 288.405 132.888L288.389 133.384C288.389 133.512 288.325 133.576 288.197 133.576H283.189C283.136 133.576 283.109 133.603 283.109 133.656C283.141 134.008 283.189 134.248 283.253 134.376C283.509 135.144 284.133 135.533 285.125 135.544C285.85 135.544 286.426 135.245 286.853 134.648C286.896 134.584 286.949 134.552 287.013 134.552C287.056 134.552 287.093 134.568 287.125 134.6L288.117 135.416C288.213 135.491 288.229 135.576 288.165 135.672C287.834 136.141 287.392 136.504 286.837 136.76C286.293 137.016 285.685 137.144 285.013 137.144C284.181 137.144 283.472 136.957 282.885 136.584C282.309 136.211 281.888 135.688 281.621 135.016C281.376 134.44 281.253 133.64 281.253 132.616C281.253 131.997 281.317 131.496 281.445 131.112C281.658 130.365 282.058 129.779 282.645 129.352C283.242 128.915 283.957 128.696 284.789 128.696C286.89 128.696 288.074 129.795 288.341 131.992ZM284.789 130.296C284.394 130.296 284.064 130.397 283.797 130.6C283.541 130.792 283.36 131.064 283.253 131.416C283.189 131.597 283.146 131.832 283.125 132.12C283.104 132.173 283.125 132.2 283.189 132.2H286.437C286.49 132.2 286.517 132.173 286.517 132.12C286.496 131.853 286.464 131.651 286.421 131.512C286.325 131.128 286.133 130.829 285.845 130.616C285.568 130.403 285.216 130.296 284.789 130.296ZM293.909 128.728C294.251 128.728 294.549 128.797 294.805 128.936C294.891 128.979 294.923 129.059 294.901 129.176L294.629 130.616C294.619 130.744 294.544 130.781 294.405 130.728C294.245 130.675 294.059 130.648 293.845 130.648C293.707 130.648 293.6 130.653 293.525 130.664C293.077 130.685 292.704 130.845 292.405 131.144C292.107 131.432 291.957 131.811 291.957 132.28V136.808C291.957 136.861 291.936 136.909 291.893 136.952C291.861 136.984 291.819 137 291.765 137H290.293C290.24 137 290.192 136.984 290.149 136.952C290.117 136.909 290.101 136.861 290.101 136.808V129.016C290.101 128.963 290.117 128.92 290.149 128.888C290.192 128.845 290.24 128.824 290.293 128.824H291.765C291.819 128.824 291.861 128.845 291.893 128.888C291.936 128.92 291.957 128.963 291.957 129.016V129.736C291.957 129.779 291.963 129.805 291.973 129.816C291.995 129.816 292.016 129.8 292.037 129.768C292.485 129.075 293.109 128.728 293.909 128.728ZM299.159 128.696C299.831 128.696 300.423 128.813 300.935 129.048C301.447 129.283 301.842 129.608 302.119 130.024C302.396 130.429 302.535 130.893 302.535 131.416V136.808C302.535 136.861 302.514 136.909 302.471 136.952C302.439 136.984 302.396 137 302.343 137H300.871C300.818 137 300.77 136.984 300.727 136.952C300.695 136.909 300.679 136.861 300.679 136.808V136.296C300.679 136.264 300.668 136.248 300.647 136.248C300.626 136.237 300.604 136.243 300.583 136.264C300.06 136.84 299.303 137.128 298.311 137.128C297.511 137.128 296.85 136.925 296.327 136.52C295.815 136.115 295.559 135.512 295.559 134.712C295.559 133.88 295.847 133.235 296.423 132.776C297.01 132.307 297.831 132.072 298.887 132.072H300.599C300.652 132.072 300.679 132.045 300.679 131.992V131.608C300.679 131.192 300.556 130.872 300.311 130.648C300.066 130.413 299.698 130.296 299.207 130.296C298.802 130.296 298.471 130.371 298.215 130.52C297.97 130.659 297.815 130.856 297.751 131.112C297.719 131.24 297.644 131.293 297.527 131.272L295.975 131.08C295.922 131.069 295.874 131.053 295.831 131.032C295.799 131 295.788 130.963 295.799 130.92C295.884 130.269 296.231 129.736 296.839 129.32C297.458 128.904 298.231 128.696 299.159 128.696ZM298.775 135.656C299.298 135.656 299.746 135.517 300.119 135.24C300.492 134.963 300.679 134.611 300.679 134.184V133.432C300.679 133.379 300.652 133.352 300.599 133.352H299.255C298.69 133.352 298.242 133.459 297.911 133.672C297.591 133.885 297.431 134.189 297.431 134.584C297.431 134.925 297.554 135.192 297.799 135.384C298.055 135.565 298.38 135.656 298.775 135.656ZM309.406 129.016C309.406 128.963 309.422 128.92 309.454 128.888C309.497 128.845 309.545 128.824 309.598 128.824H311.07C311.124 128.824 311.166 128.845 311.198 128.888C311.241 128.92 311.262 128.963 311.262 129.016V136.456C311.262 137.789 310.878 138.739 310.11 139.304C309.353 139.88 308.356 140.168 307.118 140.168C306.788 140.168 306.462 140.152 306.142 140.12C306.025 140.109 305.966 140.04 305.966 139.912L306.014 138.6C306.014 138.483 306.089 138.424 306.238 138.424C306.548 138.456 306.825 138.472 307.07 138.472C307.87 138.472 308.457 138.312 308.83 137.992C309.214 137.683 309.406 137.155 309.406 136.408V136.28C309.406 136.248 309.396 136.232 309.374 136.232C309.353 136.221 309.332 136.227 309.31 136.248C308.873 136.717 308.254 136.952 307.454 136.952C306.761 136.952 306.126 136.776 305.55 136.424C304.974 136.072 304.574 135.533 304.35 134.808C304.212 134.307 304.142 133.661 304.142 132.872C304.142 131.987 304.228 131.309 304.398 130.84C304.612 130.189 304.98 129.672 305.502 129.288C306.025 128.893 306.638 128.696 307.342 128.696C308.185 128.696 308.841 128.941 309.31 129.432C309.332 129.464 309.353 129.475 309.374 129.464C309.396 129.453 309.406 129.432 309.406 129.4V129.016ZM309.294 134.28C309.337 134.12 309.364 133.949 309.374 133.768C309.396 133.576 309.406 133.272 309.406 132.856C309.406 132.451 309.396 132.163 309.374 131.992C309.364 131.811 309.332 131.635 309.278 131.464C309.193 131.112 309.017 130.829 308.75 130.616C308.494 130.403 308.164 130.296 307.758 130.296C307.374 130.296 307.049 130.403 306.782 130.616C306.516 130.829 306.324 131.112 306.206 131.464C306.078 131.763 306.014 132.232 306.014 132.872C306.014 133.533 306.068 133.997 306.174 134.264C306.281 134.605 306.473 134.888 306.75 135.112C307.038 135.325 307.38 135.432 307.774 135.432C308.19 135.432 308.526 135.325 308.782 135.112C309.038 134.899 309.209 134.621 309.294 134.28ZM320.076 131.992C320.118 132.259 320.14 132.557 320.14 132.888L320.124 133.384C320.124 133.512 320.06 133.576 319.932 133.576H314.924C314.87 133.576 314.844 133.603 314.844 133.656C314.876 134.008 314.924 134.248 314.988 134.376C315.244 135.144 315.868 135.533 316.86 135.544C317.585 135.544 318.161 135.245 318.588 134.648C318.63 134.584 318.684 134.552 318.748 134.552C318.79 134.552 318.828 134.568 318.86 134.6L319.852 135.416C319.948 135.491 319.964 135.576 319.9 135.672C319.569 136.141 319.126 136.504 318.572 136.76C318.028 137.016 317.42 137.144 316.748 137.144C315.916 137.144 315.206 136.957 314.62 136.584C314.044 136.211 313.622 135.688 313.356 135.016C313.11 134.44 312.988 133.64 312.988 132.616C312.988 131.997 313.052 131.496 313.18 131.112C313.393 130.365 313.793 129.779 314.38 129.352C314.977 128.915 315.692 128.696 316.524 128.696C318.625 128.696 319.809 129.795 320.076 131.992ZM316.524 130.296C316.129 130.296 315.798 130.397 315.532 130.6C315.276 130.792 315.094 131.064 314.988 131.416C314.924 131.597 314.881 131.832 314.86 132.12C314.838 132.173 314.86 132.2 314.924 132.2H318.172C318.225 132.2 318.252 132.173 318.252 132.12C318.23 131.853 318.198 131.651 318.156 131.512C318.06 131.128 317.868 130.829 317.58 130.616C317.302 130.403 316.95 130.296 316.524 130.296Z" fill="#135C7D"/>
<path d="M511.728 125.928C511.781 125.843 511.856 125.8 511.952 125.8H513.424C513.477 125.8 513.52 125.821 513.552 125.864C513.594 125.896 513.616 125.939 513.616 125.992V136.808C513.616 136.861 513.594 136.909 513.552 136.952C513.52 136.984 513.477 137 513.424 137H511.952C511.898 137 511.85 136.984 511.808 136.952C511.776 136.909 511.76 136.861 511.76 136.808V129.176C511.76 129.144 511.744 129.123 511.712 129.112C511.69 129.101 511.674 129.112 511.664 129.144L509.664 132.216C509.61 132.301 509.536 132.344 509.44 132.344H508.704C508.608 132.344 508.533 132.301 508.48 132.216L506.464 129.16C506.453 129.128 506.432 129.117 506.4 129.128C506.378 129.139 506.368 129.16 506.368 129.192V136.808C506.368 136.861 506.346 136.909 506.304 136.952C506.272 136.984 506.229 137 506.176 137H504.704C504.65 137 504.602 136.984 504.56 136.952C504.528 136.909 504.512 136.861 504.512 136.808V125.992C504.512 125.939 504.528 125.896 504.56 125.864C504.602 125.821 504.65 125.8 504.704 125.8H506.176C506.272 125.8 506.346 125.843 506.4 125.928L509.008 129.88C509.029 129.901 509.05 129.912 509.072 129.912C509.093 129.912 509.109 129.901 509.12 129.88L511.728 125.928ZM518.893 128.696C519.565 128.696 520.157 128.813 520.669 129.048C521.181 129.283 521.576 129.608 521.853 130.024C522.131 130.429 522.269 130.893 522.269 131.416V136.808C522.269 136.861 522.248 136.909 522.205 136.952C522.173 136.984 522.131 137 522.077 137H520.605C520.552 137 520.504 136.984 520.461 136.952C520.429 136.909 520.413 136.861 520.413 136.808V136.296C520.413 136.264 520.403 136.248 520.381 136.248C520.36 136.237 520.339 136.243 520.317 136.264C519.795 136.84 519.037 137.128 518.045 137.128C517.245 137.128 516.584 136.925 516.061 136.52C515.549 136.115 515.293 135.512 515.293 134.712C515.293 133.88 515.581 133.235 516.157 132.776C516.744 132.307 517.565 132.072 518.621 132.072H520.333C520.387 132.072 520.413 132.045 520.413 131.992V131.608C520.413 131.192 520.291 130.872 520.045 130.648C519.8 130.413 519.432 130.296 518.941 130.296C518.536 130.296 518.205 130.371 517.949 130.52C517.704 130.659 517.549 130.856 517.485 131.112C517.453 131.24 517.379 131.293 517.261 131.272L515.709 131.08C515.656 131.069 515.608 131.053 515.565 131.032C515.533 131 515.523 130.963 515.533 130.92C515.619 130.269 515.965 129.736 516.573 129.32C517.192 128.904 517.965 128.696 518.893 128.696ZM518.509 135.656C519.032 135.656 519.48 135.517 519.853 135.24C520.227 134.963 520.413 134.611 520.413 134.184V133.432C520.413 133.379 520.387 133.352 520.333 133.352H518.989C518.424 133.352 517.976 133.459 517.645 133.672C517.325 133.885 517.165 134.189 517.165 134.584C517.165 134.925 517.288 135.192 517.533 135.384C517.789 135.565 518.115 135.656 518.509 135.656ZM523.701 137C523.626 137 523.573 136.979 523.541 136.936C523.519 136.883 523.53 136.824 523.573 136.76L526.165 132.952C526.186 132.92 526.186 132.888 526.165 132.856L523.573 129.064C523.551 129.021 523.541 128.984 523.541 128.952C523.541 128.867 523.594 128.824 523.701 128.824H525.269C525.365 128.824 525.439 128.867 525.493 128.952L527.157 131.416C527.178 131.437 527.199 131.448 527.221 131.448C527.242 131.448 527.258 131.437 527.269 131.416L528.933 128.952C528.986 128.867 529.061 128.824 529.157 128.824H530.837C530.911 128.824 530.959 128.851 530.981 128.904C531.013 128.947 531.007 129 530.965 129.064L528.373 132.856C528.362 132.888 528.362 132.92 528.373 132.952L530.965 136.76C530.986 136.803 530.997 136.84 530.997 136.872C530.997 136.957 530.943 137 530.837 137H529.269C529.173 137 529.098 136.957 529.045 136.872L527.381 134.408C527.37 134.387 527.354 134.376 527.333 134.376C527.311 134.376 527.29 134.387 527.269 134.408L525.605 136.872C525.551 136.957 525.477 137 525.381 137H523.701ZM533.439 127.704C533.108 127.704 532.836 127.597 532.623 127.384C532.409 127.171 532.303 126.899 532.303 126.568C532.303 126.237 532.409 125.965 532.623 125.752C532.836 125.539 533.108 125.432 533.439 125.432C533.769 125.432 534.041 125.539 534.255 125.752C534.468 125.965 534.575 126.237 534.575 126.568C534.575 126.899 534.468 127.171 534.255 127.384C534.041 127.597 533.769 127.704 533.439 127.704ZM532.671 137C532.617 137 532.569 136.984 532.527 136.952C532.495 136.909 532.479 136.861 532.479 136.808V129C532.479 128.947 532.495 128.904 532.527 128.872C532.569 128.829 532.617 128.808 532.671 128.808H534.143C534.196 128.808 534.239 128.829 534.271 128.872C534.313 128.904 534.335 128.947 534.335 129V136.808C534.335 136.861 534.313 136.909 534.271 136.952C534.239 136.984 534.196 137 534.143 137H532.671ZM545.213 128.696C546.034 128.696 546.674 128.947 547.133 129.448C547.602 129.939 547.837 130.627 547.837 131.512V136.808C547.837 136.861 547.815 136.909 547.773 136.952C547.741 136.984 547.698 137 547.645 137H546.189C546.135 137 546.087 136.984 546.045 136.952C546.013 136.909 545.997 136.861 545.997 136.808V131.896C545.997 131.405 545.863 131.016 545.597 130.728C545.341 130.44 544.994 130.296 544.557 130.296C544.119 130.296 543.762 130.44 543.485 130.728C543.207 131.016 543.069 131.4 543.069 131.88V136.808C543.069 136.861 543.047 136.909 543.005 136.952C542.973 136.984 542.93 137 542.877 137H541.421C541.367 137 541.319 136.984 541.277 136.952C541.245 136.909 541.229 136.861 541.229 136.808V131.896C541.229 131.405 541.095 131.016 540.829 130.728C540.562 130.44 540.21 130.296 539.773 130.296C539.367 130.296 539.031 130.413 538.765 130.648C538.509 130.883 538.359 131.203 538.317 131.608V136.808C538.317 136.861 538.295 136.909 538.253 136.952C538.221 136.984 538.178 137 538.125 137H536.653C536.599 137 536.551 136.984 536.509 136.952C536.477 136.909 536.461 136.861 536.461 136.808V129.016C536.461 128.963 536.477 128.92 536.509 128.888C536.551 128.845 536.599 128.824 536.653 128.824H538.125C538.178 128.824 538.221 128.845 538.253 128.888C538.295 128.92 538.317 128.963 538.317 129.016V129.544C538.317 129.576 538.327 129.597 538.349 129.608C538.37 129.619 538.391 129.608 538.413 129.576C538.647 129.277 538.935 129.059 539.277 128.92C539.629 128.771 540.018 128.696 540.445 128.696C540.967 128.696 541.426 128.803 541.821 129.016C542.215 129.229 542.519 129.539 542.733 129.944C542.765 129.987 542.802 129.987 542.845 129.944C543.079 129.517 543.405 129.203 543.821 129C544.237 128.797 544.701 128.696 545.213 128.696ZM554.558 129.016C554.558 128.963 554.574 128.92 554.606 128.888C554.649 128.845 554.697 128.824 554.75 128.824H556.206C556.26 128.824 556.302 128.845 556.334 128.888C556.377 128.92 556.398 128.963 556.398 129.016V136.808C556.398 136.861 556.377 136.909 556.334 136.952C556.302 136.984 556.26 137 556.206 137H554.75C554.697 137 554.649 136.984 554.606 136.952C554.574 136.909 554.558 136.861 554.558 136.808V136.296C554.558 136.264 554.548 136.243 554.526 136.232C554.505 136.221 554.484 136.232 554.462 136.264C554.025 136.829 553.369 137.112 552.494 137.112C551.684 137.112 551.001 136.877 550.446 136.408C549.902 135.939 549.63 135.272 549.63 134.408V129.016C549.63 128.963 549.646 128.92 549.678 128.888C549.721 128.845 549.769 128.824 549.822 128.824H551.294C551.348 128.824 551.39 128.845 551.422 128.888C551.465 128.92 551.486 128.963 551.486 129.016V133.88C551.486 134.381 551.614 134.781 551.87 135.08C552.137 135.379 552.505 135.528 552.974 135.528C553.454 135.528 553.838 135.379 554.126 135.08C554.414 134.781 554.558 134.381 554.558 133.88V129.016ZM567.135 128.696C567.956 128.696 568.596 128.947 569.055 129.448C569.524 129.939 569.759 130.627 569.759 131.512V136.808C569.759 136.861 569.737 136.909 569.695 136.952C569.663 136.984 569.62 137 569.567 137H568.111C568.057 137 568.009 136.984 567.967 136.952C567.935 136.909 567.919 136.861 567.919 136.808V131.896C567.919 131.405 567.785 131.016 567.519 130.728C567.263 130.44 566.916 130.296 566.479 130.296C566.041 130.296 565.684 130.44 565.407 130.728C565.129 131.016 564.991 131.4 564.991 131.88V136.808C564.991 136.861 564.969 136.909 564.927 136.952C564.895 136.984 564.852 137 564.799 137H563.343C563.289 137 563.241 136.984 563.199 136.952C563.167 136.909 563.151 136.861 563.151 136.808V131.896C563.151 131.405 563.017 131.016 562.751 130.728C562.484 130.44 562.132 130.296 561.695 130.296C561.289 130.296 560.953 130.413 560.687 130.648C560.431 130.883 560.281 131.203 560.239 131.608V136.808C560.239 136.861 560.217 136.909 560.175 136.952C560.143 136.984 560.1 137 560.047 137H558.575C558.521 137 558.473 136.984 558.431 136.952C558.399 136.909 558.383 136.861 558.383 136.808V129.016C558.383 128.963 558.399 128.92 558.431 128.888C558.473 128.845 558.521 128.824 558.575 128.824H560.047C560.1 128.824 560.143 128.845 560.175 128.888C560.217 128.92 560.239 128.963 560.239 129.016V129.544C560.239 129.576 560.249 129.597 560.271 129.608C560.292 129.619 560.313 129.608 560.335 129.576C560.569 129.277 560.857 129.059 561.199 128.92C561.551 128.771 561.94 128.696 562.367 128.696C562.889 128.696 563.348 128.803 563.743 129.016C564.137 129.229 564.441 129.539 564.655 129.944C564.687 129.987 564.724 129.987 564.767 129.944C565.001 129.517 565.327 129.203 565.743 129C566.159 128.797 566.623 128.696 567.135 128.696Z" fill="#135C7D"/>
<path d="M491.645 126.712C491.591 126.712 491.543 126.696 491.501 126.664C491.469 126.621 491.453 126.573 491.453 126.52V124.92C491.453 124.888 491.442 124.867 491.421 124.856C491.399 124.835 491.378 124.835 491.357 124.856L489.885 125.72C489.842 125.741 489.81 125.752 489.789 125.752C489.714 125.752 489.655 125.715 489.613 125.64L489.261 125C489.239 124.957 489.229 124.925 489.229 124.904C489.229 124.829 489.266 124.771 489.34 124.728L490.829 123.912C490.882 123.88 490.882 123.848 490.829 123.816L489.34 123.032C489.287 123.011 489.25 122.973 489.229 122.92C489.218 122.867 489.229 122.813 489.261 122.76L489.613 122.12C489.645 122.067 489.682 122.035 489.725 122.024C489.778 122.003 489.831 122.008 489.885 122.04L491.357 122.888C491.378 122.899 491.399 122.899 491.421 122.888C491.442 122.877 491.453 122.856 491.453 122.824V121.24C491.453 121.187 491.469 121.144 491.501 121.112C491.543 121.069 491.591 121.048 491.645 121.048H492.349C492.402 121.048 492.445 121.069 492.477 121.112C492.519 121.144 492.541 121.187 492.541 121.24V122.824C492.541 122.856 492.551 122.883 492.573 122.904C492.594 122.915 492.615 122.909 492.637 122.888L494.109 122.04C494.151 122.019 494.183 122.008 494.205 122.008C494.279 122.008 494.338 122.045 494.381 122.12L494.733 122.76C494.754 122.803 494.765 122.84 494.765 122.872C494.765 122.947 494.727 123 494.653 123.032L493.149 123.816C493.095 123.848 493.095 123.88 493.149 123.912L494.653 124.728C494.77 124.792 494.797 124.883 494.733 125L494.381 125.64C494.349 125.693 494.306 125.731 494.253 125.752C494.21 125.763 494.162 125.752 494.109 125.72L492.637 124.856C492.615 124.835 492.594 124.835 492.573 124.856C492.551 124.867 492.541 124.888 492.541 124.92V126.52C492.541 126.573 492.519 126.621 492.477 126.664C492.445 126.696 492.402 126.712 492.349 126.712H491.645Z" fill="#135C7D"/>
<path d="M33.8435 31.15C33.8435 32.75 33.3535 34.07 32.3735 35.11C31.3935 36.15 30.0535 36.81 28.3535 37.09C28.2535 37.13 28.2035 37.19 28.2035 37.27L28.2335 39.22C28.2335 39.32 28.1935 39.4 28.1135 39.46C28.0535 39.54 27.9735 39.58 27.8735 39.58H24.8735C24.7735 39.58 24.6835 39.54 24.6035 39.46C24.5435 39.4 24.5135 39.32 24.5135 39.22L24.5435 37.24C24.5435 37.16 24.4935 37.1 24.3935 37.06C22.6935 36.72 21.3535 36.02 20.3735 34.96C19.4135 33.9 18.9335 32.57 18.9335 30.97V30.31C18.9335 30.21 18.9635 30.13 19.0235 30.07C19.1035 29.99 19.1935 29.95 19.2935 29.95H22.5335C22.6335 29.95 22.7135 29.99 22.7735 30.07C22.8535 30.13 22.8935 30.21 22.8935 30.31V30.76C22.8935 31.56 23.2435 32.24 23.9435 32.8C24.6435 33.34 25.6035 33.61 26.8235 33.61C27.8435 33.61 28.5935 33.39 29.0735 32.95C29.5735 32.49 29.8235 31.93 29.8235 31.27C29.8235 30.79 29.6735 30.39 29.3735 30.07C29.0735 29.73 28.6535 29.44 28.1135 29.2C27.5935 28.94 26.7635 28.59 25.6235 28.15C24.3235 27.69 23.2335 27.22 22.3535 26.74C21.4735 26.26 20.7235 25.61 20.1035 24.79C19.5035 23.95 19.2035 22.92 19.2035 21.7C19.2035 20.16 19.6635 18.89 20.5835 17.89C21.5235 16.87 22.7835 16.21 24.3635 15.91C24.4635 15.87 24.5135 15.81 24.5135 15.73L24.4535 13.54C24.4535 13.44 24.4835 13.36 24.5435 13.3C24.6235 13.22 24.7135 13.18 24.8135 13.18H27.8135C27.9135 13.18 27.9935 13.22 28.0535 13.3C28.1335 13.36 28.1735 13.44 28.1735 13.54L28.1435 15.79C28.1435 15.87 28.1935 15.93 28.2935 15.97C29.9535 16.31 31.2735 17.04 32.2535 18.16C33.2335 19.26 33.7235 20.61 33.7235 22.21V22.66C33.7235 22.76 33.6835 22.85 33.6035 22.93C33.5435 22.99 33.4635 23.02 33.3635 23.02H30.0935C29.9935 23.02 29.9035 22.99 29.8235 22.93C29.7635 22.85 29.7335 22.76 29.7335 22.66V22.42C29.7335 21.58 29.4035 20.87 28.7435 20.29C28.0835 19.69 27.1835 19.39 26.0435 19.39C25.1435 19.39 24.4435 19.59 23.9435 19.99C23.4435 20.39 23.1935 20.94 23.1935 21.64C23.1935 22.14 23.3335 22.56 23.6135 22.9C23.9135 23.24 24.3535 23.55 24.9335 23.83C25.5135 24.11 26.4135 24.47 27.6335 24.91C28.9735 25.41 30.0335 25.86 30.8135 26.26C31.5935 26.66 32.2935 27.26 32.9135 28.06C33.5335 28.86 33.8435 29.89 33.8435 31.15ZM49.4215 26.83C49.9015 27.73 50.1415 28.88 50.1415 30.28C50.1415 31.44 49.9515 32.48 49.5715 33.4C49.0515 34.58 48.2415 35.51 47.1415 36.19C46.0415 36.87 44.7415 37.21 43.2415 37.21C41.7015 37.21 40.3715 36.86 39.2515 36.16C38.1315 35.44 37.3215 34.45 36.8215 33.19C36.4615 32.31 36.2815 31.33 36.2815 30.25V21.22C36.2815 20.14 36.5615 19.19 37.1215 18.37C37.7015 17.53 38.5015 16.89 39.5215 16.45C40.5415 15.99 41.7115 15.76 43.0315 15.76C44.3315 15.76 45.4815 15.99 46.4815 16.45C47.4815 16.89 48.2515 17.52 48.7915 18.34C49.3515 19.14 49.6315 20.07 49.6315 21.13V21.97C49.6315 22.07 49.5915 22.16 49.5115 22.24C49.4515 22.3 49.3715 22.33 49.2715 22.33H45.7615C45.6615 22.33 45.5715 22.3 45.4915 22.24C45.4315 22.16 45.4015 22.07 45.4015 21.97V21.7C45.4015 21.04 45.1815 20.49 44.7415 20.05C44.3015 19.61 43.7315 19.39 43.0315 19.39C42.2915 19.39 41.6815 19.62 41.2015 20.08C40.7415 20.52 40.5115 21.09 40.5115 21.79V24.61C40.5115 24.67 40.5315 24.71 40.5715 24.73C40.6115 24.73 40.6515 24.71 40.6915 24.67C41.5115 23.97 42.6015 23.62 43.9615 23.62C45.1615 23.62 46.2315 23.9 47.1715 24.46C48.1315 25 48.8815 25.79 49.4215 26.83ZM45.4615 32.23C45.7615 31.71 45.9115 31.08 45.9115 30.34C45.9115 29.54 45.7515 28.88 45.4315 28.36C44.9315 27.56 44.2015 27.16 43.2415 27.16C42.1615 27.16 41.4115 27.57 40.9915 28.39C40.6915 28.91 40.5415 29.58 40.5415 30.4C40.5415 31.12 40.6715 31.73 40.9315 32.23C41.3715 33.11 42.1315 33.55 43.2115 33.55C44.2515 33.55 45.0015 33.11 45.4615 32.23ZM64.1306 33.19C64.0906 33.23 64.0806 33.27 64.1006 33.31C64.1206 33.35 64.1606 33.37 64.2206 33.37H72.3506C72.4506 33.37 72.5306 33.41 72.5906 33.49C72.6706 33.55 72.7106 33.63 72.7106 33.73V36.64C72.7106 36.74 72.6706 36.83 72.5906 36.91C72.5306 36.97 72.4506 37 72.3506 37H58.8506C58.7506 37 58.6606 36.97 58.5806 36.91C58.5206 36.83 58.4906 36.74 58.4906 36.64V33.88C58.4906 33.7 58.5506 33.55 58.6706 33.43C59.6506 32.47 60.6506 31.43 61.6706 30.31C62.6906 29.17 63.3306 28.46 63.5906 28.18C64.1506 27.52 64.7206 26.89 65.3006 26.29C67.1206 24.27 68.0306 22.77 68.0306 21.79C68.0306 21.09 67.7806 20.52 67.2806 20.08C66.7806 19.62 66.1306 19.39 65.3306 19.39C64.5306 19.39 63.8806 19.62 63.3806 20.08C62.8806 20.52 62.6306 21.11 62.6306 21.85V22.6C62.6306 22.7 62.5906 22.79 62.5106 22.87C62.4506 22.93 62.3706 22.96 62.2706 22.96H58.7306C58.6306 22.96 58.5406 22.93 58.4606 22.87C58.4006 22.79 58.3706 22.7 58.3706 22.6V21.19C58.4306 20.11 58.7706 19.16 59.3906 18.34C60.0106 17.5 60.8306 16.86 61.8506 16.42C62.8906 15.98 64.0506 15.76 65.3306 15.76C66.7506 15.76 67.9806 16.03 69.0206 16.57C70.0806 17.09 70.8906 17.8 71.4506 18.7C72.0306 19.6 72.3206 20.6 72.3206 21.7C72.3206 22.54 72.1106 23.4 71.6906 24.28C71.2706 25.16 70.6406 26.11 69.8006 27.13C69.1806 27.91 68.5106 28.68 67.7906 29.44C67.0706 30.2 66.0006 31.3 64.5806 32.74L64.1306 33.19ZM82.4477 37.33C80.2477 37.33 78.5077 36.72 77.2277 35.5C75.9477 34.26 75.3077 32.58 75.3077 30.46V22.54C75.3077 20.46 75.9477 18.81 77.2277 17.59C78.5077 16.37 80.2477 15.76 82.4477 15.76C84.6477 15.76 86.3877 16.37 87.6677 17.59C88.9677 18.81 89.6177 20.46 89.6177 22.54V30.46C89.6177 32.58 88.9677 34.26 87.6677 35.5C86.3877 36.72 84.6477 37.33 82.4477 37.33ZM82.4477 33.7C83.3477 33.7 84.0577 33.43 84.5777 32.89C85.1177 32.33 85.3877 31.59 85.3877 30.67V22.42C85.3877 21.5 85.1177 20.77 84.5777 20.23C84.0577 19.67 83.3477 19.39 82.4477 19.39C81.5677 19.39 80.8577 19.67 80.3177 20.23C79.7977 20.77 79.5377 21.5 79.5377 22.42V30.67C79.5377 31.59 79.7977 32.33 80.3177 32.89C80.8577 33.43 81.5677 33.7 82.4477 33.7ZM99.5571 37.33C97.3571 37.33 95.6171 36.72 94.3371 35.5C93.0571 34.26 92.4171 32.58 92.4171 30.46V22.54C92.4171 20.46 93.0571 18.81 94.3371 17.59C95.6171 16.37 97.3571 15.76 99.5571 15.76C101.757 15.76 103.497 16.37 104.777 17.59C106.077 18.81 106.727 20.46 106.727 22.54V30.46C106.727 32.58 106.077 34.26 104.777 35.5C103.497 36.72 101.757 37.33 99.5571 37.33ZM99.5571 33.7C100.457 33.7 101.167 33.43 101.687 32.89C102.227 32.33 102.497 31.59 102.497 30.67V22.42C102.497 21.5 102.227 20.77 101.687 20.23C101.167 19.67 100.457 19.39 99.5571 19.39C98.6771 19.39 97.9671 19.67 97.4271 20.23C96.9071 20.77 96.6471 21.5 96.6471 22.42V30.67C96.6471 31.59 96.9071 32.33 97.4271 32.89C97.9671 33.43 98.6771 33.7 99.5571 33.7Z" fill="#6E9AAD"/>
<path d="M511.239 31.15C511.239 32.75 510.749 34.07 509.769 35.11C508.789 36.15 507.449 36.81 505.749 37.09C505.649 37.13 505.599 37.19 505.599 37.27L505.629 39.22C505.629 39.32 505.589 39.4 505.509 39.46C505.449 39.54 505.369 39.58 505.269 39.58H502.269C502.169 39.58 502.079 39.54 501.999 39.46C501.939 39.4 501.909 39.32 501.909 39.22L501.939 37.24C501.939 37.16 501.889 37.1 501.789 37.06C500.089 36.72 498.749 36.02 497.769 34.96C496.809 33.9 496.329 32.57 496.329 30.97V30.31C496.329 30.21 496.359 30.13 496.419 30.07C496.499 29.99 496.589 29.95 496.689 29.95H499.929C500.029 29.95 500.109 29.99 500.169 30.07C500.249 30.13 500.289 30.21 500.289 30.31V30.76C500.289 31.56 500.639 32.24 501.339 32.8C502.039 33.34 502.999 33.61 504.219 33.61C505.239 33.61 505.989 33.39 506.469 32.95C506.969 32.49 507.219 31.93 507.219 31.27C507.219 30.79 507.069 30.39 506.769 30.07C506.469 29.73 506.049 29.44 505.509 29.2C504.989 28.94 504.159 28.59 503.019 28.15C501.719 27.69 500.629 27.22 499.749 26.74C498.869 26.26 498.119 25.61 497.499 24.79C496.899 23.95 496.599 22.92 496.599 21.7C496.599 20.16 497.059 18.89 497.979 17.89C498.919 16.87 500.179 16.21 501.759 15.91C501.859 15.87 501.909 15.81 501.909 15.73L501.849 13.54C501.849 13.44 501.879 13.36 501.939 13.3C502.019 13.22 502.109 13.18 502.209 13.18H505.209C505.309 13.18 505.389 13.22 505.449 13.3C505.529 13.36 505.569 13.44 505.569 13.54L505.539 15.79C505.539 15.87 505.589 15.93 505.689 15.97C507.349 16.31 508.669 17.04 509.649 18.16C510.629 19.26 511.119 20.61 511.119 22.21V22.66C511.119 22.76 511.079 22.85 510.999 22.93C510.939 22.99 510.859 23.02 510.759 23.02H507.489C507.389 23.02 507.299 22.99 507.219 22.93C507.159 22.85 507.129 22.76 507.129 22.66V22.42C507.129 21.58 506.799 20.87 506.139 20.29C505.479 19.69 504.579 19.39 503.439 19.39C502.539 19.39 501.839 19.59 501.339 19.99C500.839 20.39 500.589 20.94 500.589 21.64C500.589 22.14 500.729 22.56 501.009 22.9C501.309 23.24 501.749 23.55 502.329 23.83C502.909 24.11 503.809 24.47 505.029 24.91C506.369 25.41 507.429 25.86 508.209 26.26C508.989 26.66 509.689 27.26 510.309 28.06C510.929 28.86 511.239 29.89 511.239 31.15ZM526.547 19.81C526.887 20.63 527.057 21.61 527.057 22.75V31.78C527.057 32.86 526.777 33.82 526.217 34.66C525.657 35.48 524.867 36.12 523.847 36.58C522.827 37.02 521.657 37.24 520.337 37.24C519.037 37.24 517.887 37.02 516.887 36.58C515.887 36.12 515.107 35.49 514.547 34.69C513.987 33.87 513.707 32.93 513.707 31.87V31.03C513.707 30.93 513.737 30.85 513.797 30.79C513.877 30.71 513.967 30.67 514.067 30.67H517.577C517.677 30.67 517.757 30.71 517.817 30.79C517.897 30.85 517.937 30.93 517.937 31.03V31.3C517.937 31.96 518.157 32.51 518.597 32.95C519.057 33.39 519.637 33.61 520.337 33.61C521.077 33.61 521.677 33.39 522.137 32.95C522.597 32.49 522.827 31.91 522.827 31.21V28.42C522.827 28.36 522.807 28.32 522.767 28.3C522.727 28.28 522.687 28.29 522.647 28.33C521.827 29.03 520.747 29.38 519.407 29.38C518.207 29.38 517.127 29.11 516.167 28.57C515.227 28.01 514.487 27.21 513.947 26.17C513.447 25.23 513.197 24.08 513.197 22.72C513.197 21.54 513.397 20.5 513.797 19.6C514.297 18.42 515.097 17.49 516.197 16.81C517.317 16.13 518.627 15.79 520.127 15.79C521.647 15.79 522.967 16.15 524.087 16.87C525.227 17.57 526.047 18.55 526.547 19.81ZM520.127 25.84C521.167 25.84 521.917 25.43 522.377 24.61C522.677 24.09 522.827 23.42 522.827 22.6C522.827 21.94 522.697 21.33 522.437 20.77C521.997 19.89 521.237 19.45 520.157 19.45C519.117 19.45 518.357 19.89 517.877 20.77C517.577 21.33 517.427 21.96 517.427 22.66C517.427 23.42 517.597 24.08 517.937 24.64C518.437 25.44 519.167 25.84 520.127 25.84ZM549.09 27.43C549.39 28.41 549.54 29.36 549.54 30.28C549.54 31.3 549.38 32.22 549.06 33.04C548.6 34.32 547.79 35.34 546.63 36.1C545.47 36.84 544.11 37.21 542.55 37.21C541.03 37.21 539.69 36.85 538.53 36.13C537.39 35.39 536.58 34.39 536.1 33.13C535.9 32.61 535.75 32.06 535.65 31.48V31.42C535.65 31.2 535.77 31.09 536.01 31.09H539.64C539.84 31.09 539.97 31.2 540.03 31.42C540.05 31.54 540.08 31.64 540.12 31.72C540.16 31.8 540.19 31.87 540.21 31.93C540.41 32.45 540.71 32.85 541.11 33.13C541.51 33.41 541.98 33.55 542.52 33.55C543.08 33.55 543.57 33.4 543.99 33.1C544.41 32.8 544.72 32.38 544.92 31.84C545.12 31.44 545.22 30.92 545.22 30.28C545.22 29.7 545.13 29.18 544.95 28.72C544.81 28.2 544.53 27.8 544.11 27.52C543.69 27.24 543.2 27.1 542.64 27.1C542.08 27.1 541.56 27.23 541.08 27.49C540.6 27.75 540.28 28.09 540.12 28.51C540.06 28.71 539.93 28.81 539.73 28.81H536.04C535.94 28.81 535.85 28.78 535.77 28.72C535.71 28.64 535.68 28.55 535.68 28.45V16.36C535.68 16.26 535.71 16.18 535.77 16.12C535.85 16.04 535.94 16 536.04 16H548.43C548.53 16 548.61 16.04 548.67 16.12C548.75 16.18 548.79 16.26 548.79 16.36V19.27C548.79 19.37 548.75 19.46 548.67 19.54C548.61 19.6 548.53 19.63 548.43 19.63H540.06C539.96 19.63 539.91 19.68 539.91 19.78L539.88 24.22C539.88 24.36 539.94 24.39 540.06 24.31C540.96 23.73 542 23.44 543.18 23.44C544.58 23.44 545.8 23.8 546.84 24.52C547.9 25.22 548.65 26.19 549.09 27.43ZM559.052 37.33C556.852 37.33 555.112 36.72 553.832 35.5C552.552 34.26 551.912 32.58 551.912 30.46V22.54C551.912 20.46 552.552 18.81 553.832 17.59C555.112 16.37 556.852 15.76 559.052 15.76C561.252 15.76 562.992 16.37 564.272 17.59C565.572 18.81 566.222 20.46 566.222 22.54V30.46C566.222 32.58 565.572 34.26 564.272 35.5C562.992 36.72 561.252 37.33 559.052 37.33ZM559.052 33.7C559.952 33.7 560.662 33.43 561.182 32.89C561.722 32.33 561.992 31.59 561.992 30.67V22.42C561.992 21.5 561.722 20.77 561.182 20.23C560.662 19.67 559.952 19.39 559.052 19.39C558.172 19.39 557.462 19.67 556.922 20.23C556.402 20.77 556.142 21.5 556.142 22.42V30.67C556.142 31.59 556.402 32.33 556.922 32.89C557.462 33.43 558.172 33.7 559.052 33.7ZM576.162 37.33C573.962 37.33 572.222 36.72 570.942 35.5C569.662 34.26 569.022 32.58 569.022 30.46V22.54C569.022 20.46 569.662 18.81 570.942 17.59C572.222 16.37 573.962 15.76 576.162 15.76C578.362 15.76 580.102 16.37 581.382 17.59C582.682 18.81 583.332 20.46 583.332 22.54V30.46C583.332 32.58 582.682 34.26 581.382 35.5C580.102 36.72 578.362 37.33 576.162 37.33ZM576.162 33.7C577.062 33.7 577.772 33.43 578.292 32.89C578.832 32.33 579.102 31.59 579.102 30.67V22.42C579.102 21.5 578.832 20.77 578.292 20.23C577.772 19.67 577.062 19.39 576.162 19.39C575.282 19.39 574.572 19.67 574.032 20.23C573.512 20.77 573.252 21.5 573.252 22.42V30.67C573.252 31.59 573.512 32.33 574.032 32.89C574.572 33.43 575.282 33.7 576.162 33.7Z" fill="#6E9AAD"/>
<path d="M256.502 28.512C256.502 30.48 255.914 32.124 254.738 33.444C253.562 34.74 251.966 35.592 249.95 36C249.83 36.048 249.77 36.12 249.77 36.216L249.842 38.376C249.842 38.544 249.794 38.676 249.698 38.772C249.602 38.868 249.47 38.916 249.302 38.916H244.478C244.31 38.916 244.178 38.868 244.082 38.772C243.986 38.676 243.938 38.544 243.938 38.376L244.01 36.144C244.01 36.024 243.962 35.952 243.866 35.928C241.874 35.424 240.314 34.5 239.186 33.156C238.058 31.812 237.494 30.168 237.494 28.224V27.72C237.494 27.552 237.542 27.42 237.638 27.324C237.734 27.228 237.866 27.18 238.034 27.18H243.362C243.53 27.18 243.662 27.228 243.758 27.324C243.854 27.42 243.902 27.552 243.902 27.72V27.936C243.902 28.608 244.238 29.208 244.91 29.736C245.582 30.24 246.482 30.492 247.61 30.492C248.474 30.492 249.086 30.312 249.446 29.952C249.83 29.568 250.022 29.148 250.022 28.692C250.022 28.164 249.782 27.768 249.302 27.504C248.846 27.24 248.018 26.928 246.818 26.568L245.774 26.244C243.518 25.524 241.61 24.564 240.05 23.364C238.514 22.164 237.746 20.424 237.746 18.144C237.746 16.32 238.298 14.772 239.402 13.5C240.53 12.204 242.018 11.316 243.866 10.836C243.962 10.812 244.01 10.74 244.01 10.62L243.938 8.064C243.938 7.896 243.986 7.764 244.082 7.668C244.178 7.572 244.31 7.524 244.478 7.524H249.302C249.47 7.524 249.602 7.572 249.698 7.668C249.794 7.764 249.842 7.896 249.842 8.064L249.77 10.728C249.77 10.824 249.818 10.884 249.914 10.908C251.858 11.436 253.418 12.408 254.594 13.824C255.77 15.24 256.358 16.92 256.358 18.864V19.188C256.358 19.356 256.31 19.488 256.214 19.584C256.118 19.68 255.986 19.728 255.818 19.728H250.526C250.358 19.728 250.226 19.68 250.13 19.584C250.034 19.488 249.986 19.356 249.986 19.188V19.152C249.986 18.432 249.674 17.784 249.05 17.208C248.426 16.608 247.586 16.308 246.53 16.308C245.786 16.308 245.198 16.464 244.766 16.776C244.334 17.088 244.118 17.52 244.118 18.072C244.118 18.504 244.274 18.876 244.586 19.188C244.898 19.476 245.378 19.764 246.026 20.052C246.674 20.316 247.67 20.664 249.014 21.096C249.206 21.168 250.01 21.432 251.426 21.888C252.866 22.344 254.066 23.148 255.026 24.3C256.01 25.452 256.502 26.856 256.502 28.512ZM261.329 36C261.137 36 260.993 35.952 260.897 35.856C260.825 35.736 260.825 35.58 260.897 35.388L268.349 16.812C268.373 16.764 268.361 16.716 268.313 16.668C268.289 16.62 268.253 16.596 268.205 16.596H263.453C263.333 16.596 263.273 16.656 263.273 16.776V18.396C263.273 18.564 263.225 18.696 263.129 18.792C263.033 18.888 262.901 18.936 262.733 18.936H258.341C258.173 18.936 258.041 18.888 257.945 18.792C257.849 18.696 257.801 18.564 257.801 18.396L257.837 11.34C257.837 11.172 257.885 11.04 257.981 10.944C258.077 10.848 258.209 10.8 258.377 10.8H275.009C275.177 10.8 275.309 10.848 275.405 10.944C275.501 11.04 275.549 11.172 275.549 11.34V16.236C275.549 16.404 275.501 16.632 275.405 16.92L268.025 35.568C267.929 35.856 267.713 36 267.377 36H261.329ZM304.238 23.868C304.406 23.868 304.538 23.916 304.634 24.012C304.73 24.108 304.778 24.24 304.778 24.408V29.304C304.778 29.472 304.73 29.604 304.634 29.7C304.538 29.796 304.406 29.844 304.238 29.844H302.762C302.642 29.844 302.582 29.904 302.582 30.024V35.46C302.582 35.628 302.534 35.76 302.438 35.856C302.342 35.952 302.21 36 302.042 36H296.354C296.186 36 296.054 35.952 295.958 35.856C295.862 35.76 295.814 35.628 295.814 35.46V30.024C295.814 29.904 295.754 29.844 295.634 29.844H284.402C284.234 29.844 284.102 29.796 284.006 29.7C283.91 29.604 283.862 29.472 283.862 29.304V25.488C283.862 25.248 283.91 25.02 284.006 24.804L289.874 11.196C289.97 10.932 290.174 10.8 290.486 10.8H296.57C296.762 10.8 296.894 10.86 296.966 10.98C297.038 11.1 297.038 11.256 296.966 11.448L291.746 23.652C291.722 23.7 291.722 23.748 291.746 23.796C291.77 23.844 291.806 23.868 291.854 23.868H295.634C295.754 23.868 295.814 23.808 295.814 23.688V20.124C295.814 19.956 295.862 19.824 295.958 19.728C296.054 19.632 296.186 19.584 296.354 19.584H302.042C302.21 19.584 302.342 19.632 302.438 19.728C302.534 19.824 302.582 19.956 302.582 20.124V23.688C302.582 23.808 302.642 23.868 302.762 23.868H304.238ZM316.429 36.432C313.573 36.432 311.317 35.64 309.661 34.056C308.029 32.472 307.213 30.288 307.213 27.504V19.296C307.213 16.584 308.029 14.448 309.661 12.888C311.317 11.304 313.573 10.512 316.429 10.512C319.285 10.512 321.541 11.304 323.197 12.888C324.853 14.448 325.681 16.584 325.681 19.296V27.504C325.681 30.264 324.853 32.448 323.197 34.056C321.541 35.64 319.285 36.432 316.429 36.432ZM316.429 30.636C317.197 30.636 317.797 30.396 318.229 29.916C318.685 29.412 318.913 28.728 318.913 27.864V19.08C318.913 18.216 318.685 17.544 318.229 17.064C317.797 16.56 317.197 16.308 316.429 16.308C315.661 16.308 315.061 16.56 314.629 17.064C314.197 17.544 313.981 18.216 313.981 19.08V27.864C313.981 28.728 314.197 29.412 314.629 29.916C315.061 30.396 315.661 30.636 316.429 30.636ZM337.066 36.432C334.21 36.432 331.954 35.64 330.298 34.056C328.666 32.472 327.85 30.288 327.85 27.504V19.296C327.85 16.584 328.666 14.448 330.298 12.888C331.954 11.304 334.21 10.512 337.066 10.512C339.922 10.512 342.178 11.304 343.834 12.888C345.49 14.448 346.318 16.584 346.318 19.296V27.504C346.318 30.264 345.49 32.448 343.834 34.056C342.178 35.64 339.922 36.432 337.066 36.432ZM337.066 30.636C337.834 30.636 338.434 30.396 338.866 29.916C339.322 29.412 339.55 28.728 339.55 27.864V19.08C339.55 18.216 339.322 17.544 338.866 17.064C338.434 16.56 337.834 16.308 337.066 16.308C336.298 16.308 335.698 16.56 335.266 17.064C334.834 17.544 334.618 18.216 334.618 19.08V27.864C334.618 28.728 334.834 29.412 335.266 29.916C335.698 30.396 336.298 30.636 337.066 30.636Z" fill="#135C7D"/>
<rect x="62.5" y="79.5" width="476" height="2" rx="1" fill="#26DEFF" stroke="#26DEFF"/>
<circle cx="62" cy="81" r="9.5" fill="#26DEFF" stroke="#26DEFF"/>
<circle cx="174.5" cy="80.5" r="5" fill="#26DEFF" stroke="#26DEFF"/>
<circle cx="415.5" cy="80.5" r="5" fill="#26DEFF" stroke="#26DEFF"/>
<circle cx="292" cy="81" r="9.5" fill="#26DEFF" stroke="#26DEFF"/>
<circle cx="292" cy="81" r="6" fill="white"/>
<circle cx="62" cy="81" r="6" fill="white"/>
<circle cx="539" cy="81" r="9.5" fill="#26DEFF" stroke="#26DEFF"/>
<circle cx="539" cy="81" r="6" fill="white"/>
</svg>
