<svg width="81" height="74" viewBox="0 0 81 74" fill="none" xmlns="http://www.w3.org/2000/svg">
<path fill-rule="evenodd" clip-rule="evenodd" d="M8.11914 16.8735C9.22371 16.8735 10.1191 17.769 10.1191 18.8735V69.3424H71.8043C72.9089 69.3424 73.8043 70.2379 73.8043 71.3424C73.8043 72.447 72.9089 73.3424 71.8043 73.3424H8.11914C7.01457 73.3424 6.11914 72.447 6.11914 71.3424V18.8735C6.11914 17.769 7.01457 16.8735 8.11914 16.8735Z" fill="#75ACC6"/>
<path fill-rule="evenodd" clip-rule="evenodd" d="M39.4341 0.0822566C39.8046 -0.0274189 40.199 -0.0274189 40.5695 0.0822566L78.5712 11.3313C79.6304 11.6449 80.2348 12.7576 79.9213 13.8168C79.6078 14.8759 78.495 15.4803 77.4359 15.1668L40.0018 4.08578L2.56772 15.1668C1.50857 15.4803 0.395813 14.8759 0.082292 13.8168C-0.231229 12.7576 0.373215 11.6449 1.43236 11.3313L39.4341 0.0822566Z" fill="#75ACC6"/>
<path fill-rule="evenodd" clip-rule="evenodd" d="M28.1794 37.9167C28.1794 36.8122 29.0749 35.9167 30.1794 35.9167H49.8244C50.929 35.9167 51.8244 36.8122 51.8244 37.9167V71.3426C51.8244 72.4471 50.929 73.3426 49.8244 73.3426H30.1794C29.0749 73.3426 28.1794 72.4471 28.1794 71.3426V37.9167ZM32.1794 39.9167V69.3426H47.8244V39.9167H32.1794Z" fill="#75ACC6"/>
<path fill-rule="evenodd" clip-rule="evenodd" d="M31.7219 15.0972C31.7219 13.9926 32.6174 13.0972 33.7219 13.0972H46.2818C47.3864 13.0972 48.2818 13.9926 48.2818 15.0972V27.0694C48.2818 28.174 47.3864 29.0694 46.2818 29.0694H33.7219C32.6174 29.0694 31.7219 28.174 31.7219 27.0694V15.0972ZM35.7219 17.0972V25.0694H44.2818V17.0972H35.7219Z" fill="#75ACC6"/>
<path fill-rule="evenodd" clip-rule="evenodd" d="M0 71.3425C0 70.238 0.89543 69.3425 2 69.3425H78.0035C79.1081 69.3425 80.0035 70.238 80.0035 71.3425C80.0035 72.4471 79.1081 73.3425 78.0035 73.3425H2C0.89543 73.3425 0 72.4471 0 71.3425Z" fill="#75ACC6"/>
<path fill-rule="evenodd" clip-rule="evenodd" d="M73.5754 44.9962C74.68 44.9962 75.5754 45.8916 75.5754 46.9962V71.1817C75.5754 72.2863 74.68 73.1817 73.5754 73.1817C72.4709 73.1817 71.5754 72.2863 71.5754 71.1817V46.9962C71.5754 45.8916 72.4709 44.9962 73.5754 44.9962Z" fill="#75ACC6"/>
<path fill-rule="evenodd" clip-rule="evenodd" d="M73.5757 16.7129C74.6803 16.7129 75.5757 17.6083 75.5757 18.7129V30.9262C75.5757 32.0307 74.6803 32.9262 73.5757 32.9262C72.4711 32.9262 71.5757 32.0307 71.5757 30.9262V18.7129C71.5757 17.6083 72.4711 16.7129 73.5757 16.7129Z" fill="#75ACC6"/>
<path fill-rule="evenodd" clip-rule="evenodd" d="M73.5754 37.0416C74.68 37.0416 75.5754 37.9371 75.5754 39.0416V39.1227C75.5754 40.2273 74.68 41.1227 73.5754 41.1227C72.4709 41.1227 71.5754 40.2273 71.5754 39.1227V39.0416C71.5754 37.9371 72.4709 37.0416 73.5754 37.0416Z" fill="#75ACC6"/>
</svg>
