<svg width="110" height="90" viewBox="0 0 110 90" fill="none" xmlns="http://www.w3.org/2000/svg">
<path fill-rule="evenodd" clip-rule="evenodd" d="M8.23975 32.8293C9.34432 32.8293 10.2397 33.7248 10.2397 34.8293V87.5333C10.2397 88.6378 9.34432 89.5333 8.23975 89.5333C7.13518 89.5333 6.23975 88.6378 6.23975 87.5333V34.8293C6.23975 33.7248 7.13518 32.8293 8.23975 32.8293Z" fill="#75ACC6"/>
<path fill-rule="evenodd" clip-rule="evenodd" d="M38.9257 0.372354C39.6221 -0.124913 40.5577 -0.124043 41.2531 0.37452L78.8549 27.33C79.7526 27.9735 79.9587 29.223 79.3151 30.1207C78.6716 31.0184 77.4221 31.2245 76.5244 30.5809L40.0856 4.45917L3.16214 30.8245C2.26321 31.4663 1.01414 31.258 0.372265 30.359C-0.269614 29.4601 -0.0612381 28.2111 0.837686 27.5692L38.9257 0.372354Z" fill="#75ACC6"/>
<path fill-rule="evenodd" clip-rule="evenodd" d="M27.5527 53.9797C27.5527 52.8752 28.4482 51.9797 29.5527 51.9797H49.3261C50.4306 51.9797 51.3261 52.8752 51.3261 53.9797V87.4528C51.3261 88.5573 50.4306 89.4528 49.3261 89.4528H29.5527C28.4482 89.4528 27.5527 88.5573 27.5527 87.4528V53.9797ZM31.5527 55.9797V85.4528H47.3261V55.9797H31.5527Z" fill="#75ACC6"/>
<path fill-rule="evenodd" clip-rule="evenodd" d="M31.1184 31.1279C31.1184 30.0234 32.0138 29.1279 33.1184 29.1279H45.7604C46.8649 29.1279 47.7604 30.0234 47.7604 31.1279V43.1171C47.7604 44.2216 46.8649 45.1171 45.7604 45.1171H33.1184C32.0138 45.1171 31.1184 44.2216 31.1184 43.1171V31.1279ZM35.1184 33.1279V41.1171H43.7604V33.1279H35.1184Z" fill="#75ACC6"/>
<path fill-rule="evenodd" clip-rule="evenodd" d="M0 87.5332C0 86.4286 0.89543 85.5332 2 85.5332H107.512C108.616 85.5332 109.512 86.4286 109.512 87.5332C109.512 88.6378 108.616 89.5332 107.512 89.5332H2C0.89543 89.5332 0 88.6378 0 87.5332Z" fill="#75ACC6"/>
<path fill-rule="evenodd" clip-rule="evenodd" d="M53.2419 12.8625C53.2419 11.758 54.1374 10.8625 55.2419 10.8625H82.3898C82.7768 10.8625 83.1555 10.9748 83.48 11.1858L108.602 27.52C109.528 28.1221 109.79 29.3609 109.188 30.2869C108.586 31.213 107.347 31.4756 106.421 30.8735L81.7967 14.8625H55.2419C54.1374 14.8625 53.2419 13.9671 53.2419 12.8625Z" fill="#75ACC6"/>
<path fill-rule="evenodd" clip-rule="evenodd" d="M101.596 60.8307C102.7 60.8307 103.596 61.7261 103.596 62.8307V87.0503C103.596 88.1549 102.7 89.0503 101.596 89.0503C100.491 89.0503 99.5957 88.1549 99.5957 87.0503V62.8307C99.5957 61.7261 100.491 60.8307 101.596 60.8307Z" fill="#75ACC6"/>
<path fill-rule="evenodd" clip-rule="evenodd" d="M72.0168 51.8992C73.1214 51.8992 74.0168 52.7946 74.0168 53.8992V67.2562C74.0168 68.3608 73.1214 69.2562 72.0168 69.2562C70.9123 69.2562 70.0168 68.3608 70.0168 67.2562V53.8992C70.0168 52.7946 70.9123 51.8992 72.0168 51.8992Z" fill="#75ACC6"/>
<path fill-rule="evenodd" clip-rule="evenodd" d="M101.596 32.5073C102.7 32.5073 103.596 33.4028 103.596 34.5073V46.7378C103.596 47.8424 102.7 48.7378 101.596 48.7378C100.491 48.7378 99.5957 47.8424 99.5957 46.7378V34.5073C99.5957 33.4028 100.491 32.5073 101.596 32.5073Z" fill="#75ACC6"/>
<path fill-rule="evenodd" clip-rule="evenodd" d="M101.596 52.8647C102.7 52.8647 103.596 53.7602 103.596 54.8647V55.1061C103.596 56.2107 102.7 57.1061 101.596 57.1061C100.491 57.1061 99.5957 56.2107 99.5957 55.1061V54.8647C99.5957 53.7602 100.491 52.8647 101.596 52.8647Z" fill="#75ACC6"/>
</svg>
