<svg width="132" height="94" viewBox="0 0 132 94" fill="none" xmlns="http://www.w3.org/2000/svg">
<path fill-rule="evenodd" clip-rule="evenodd" d="M33.2429 43.8406C34.3475 43.8406 35.2429 44.736 35.2429 45.8406V84.306C35.2429 85.4106 34.3475 86.306 33.2429 86.306C32.1384 86.306 31.2429 85.4106 31.2429 84.306V45.8406C31.2429 44.736 32.1384 43.8406 33.2429 43.8406Z" fill="#75ACC6"/>
<path fill-rule="evenodd" clip-rule="evenodd" d="M31.2429 91.5288C31.2429 90.4242 32.1384 89.5288 33.2429 89.5288H99.6756C100.78 89.5288 101.676 90.4242 101.676 91.5288C101.676 92.6334 100.78 93.5288 99.6756 93.5288H33.2429C32.1384 93.5288 31.2429 92.6334 31.2429 91.5288Z" fill="#75ACC6"/>
<path fill-rule="evenodd" clip-rule="evenodd" d="M99.675 43.8406C100.78 43.8406 101.675 44.736 101.675 45.8406V84.306C101.675 85.4106 100.78 86.306 99.675 86.306C98.5705 86.306 97.675 85.4106 97.675 84.306V45.8406C97.675 44.736 98.5705 43.8406 99.675 43.8406Z" fill="#75ACC6"/>
<path fill-rule="evenodd" clip-rule="evenodd" d="M65.3253 0.382083C66.0269 -0.127798 66.9772 -0.127319 67.6784 0.38327L107.236 29.1903C108.128 29.8406 108.325 31.0915 107.675 31.9844C107.025 32.8773 105.774 33.074 104.881 32.4238L66.4997 4.47322L28.0355 32.425C27.1419 33.0743 25.8912 32.8764 25.2418 31.9828C24.5925 31.0892 24.7905 29.8385 25.684 29.1891L65.3253 0.382083Z" fill="#75ACC6"/>
<path fill-rule="evenodd" clip-rule="evenodd" d="M54.2549 56.5906C54.2549 55.486 55.1503 54.5906 56.2549 54.5906H76.7474C77.8519 54.5906 78.7474 55.486 78.7474 56.5906V91.5286C78.7474 92.6332 77.8519 93.5286 76.7474 93.5286H56.2549C55.1503 93.5286 54.2549 92.6332 54.2549 91.5286V56.5906ZM58.2549 58.5906V89.5286H74.7474V58.5906H58.2549Z" fill="#75ACC6"/>
<path fill-rule="evenodd" clip-rule="evenodd" d="M57.9502 26.7759C57.9502 25.6713 58.8456 24.7759 59.9502 24.7759H73.052C74.1565 24.7759 75.052 25.6713 75.052 26.7759V39.2898C75.052 40.3943 74.1565 41.2898 73.052 41.2898H59.9502C58.8456 41.2898 57.9502 40.3943 57.9502 39.2898V26.7759ZM61.9502 28.7759V37.2898H71.052V28.7759H61.9502Z" fill="#75ACC6"/>
<path fill-rule="evenodd" clip-rule="evenodd" d="M97.675 91.5288C97.675 90.4242 98.5705 89.5288 99.675 89.5288H129.826C130.93 89.5288 131.826 90.4242 131.826 91.5288C131.826 92.6334 130.93 93.5288 129.826 93.5288H99.675C98.5705 93.5288 97.675 92.6334 97.675 91.5288Z" fill="#75ACC6"/>
<path fill-rule="evenodd" clip-rule="evenodd" d="M0 91.5288C0 90.4242 0.89543 89.5288 2 89.5288H33.2427C34.3472 89.5288 35.2427 90.4242 35.2427 91.5288C35.2427 92.6334 34.3472 93.5288 33.2427 93.5288H2C0.89543 93.5288 0 92.6334 0 91.5288Z" fill="#75ACC6"/>
<path fill-rule="evenodd" clip-rule="evenodd" d="M13.3201 12.45C13.6178 11.6788 14.3593 11.1702 15.186 11.1702H51.1318C52.2364 11.1702 53.1318 12.0656 53.1318 13.1702C53.1318 14.2747 52.2364 15.1702 51.1318 15.1702H16.5579L7.81341 37.8262C7.41568 38.8567 6.25789 39.3696 5.22741 38.9719C4.19693 38.5742 3.68399 37.4164 4.08171 36.3859L13.3201 12.45Z" fill="#75ACC6"/>
<path fill-rule="evenodd" clip-rule="evenodd" d="M80.5422 13.1702C80.5422 12.0656 81.4377 11.1702 82.5422 11.1702H118.656C119.456 11.1702 120.179 11.647 120.494 12.3823L130.573 35.8983C131.008 36.9136 130.537 38.0893 129.522 38.5244C128.507 38.9595 127.331 38.4892 126.896 37.474L117.337 15.1702H82.5422C81.4377 15.1702 80.5422 14.2747 80.5422 13.1702Z" fill="#75ACC6"/>
<path fill-rule="evenodd" clip-rule="evenodd" d="M5.94751 43.8406C7.05208 43.8406 7.94751 44.736 7.94751 45.8406V89.849C7.94751 90.9536 7.05208 91.849 5.94751 91.849C4.84294 91.849 3.94751 90.9536 3.94751 89.849V45.8406C3.94751 44.736 4.84294 43.8406 5.94751 43.8406Z" fill="#75ACC6"/>
<path fill-rule="evenodd" clip-rule="evenodd" d="M128.734 43.8406C129.839 43.8406 130.734 44.736 130.734 45.8406V91.3608C130.734 92.4654 129.839 93.3608 128.734 93.3608C127.63 93.3608 126.734 92.4654 126.734 91.3608V45.8406C126.734 44.736 127.63 43.8406 128.734 43.8406Z" fill="#75ACC6"/>
<path fill-rule="evenodd" clip-rule="evenodd" d="M19.0917 25.3234C19.7981 24.7985 20.7646 24.797 21.4726 25.3198L35.0141 35.3198C35.9027 35.976 36.0911 37.2283 35.4349 38.1168C34.7787 39.0054 33.5265 39.1937 32.638 38.5376L20.2882 29.4176L8.01888 38.5341C7.13226 39.1928 5.87947 39.0081 5.2207 38.1215C4.56192 37.2349 4.74661 35.9821 5.63323 35.3234L19.0917 25.3234Z" fill="#75ACC6"/>
<path fill-rule="evenodd" clip-rule="evenodd" d="M112.243 24.3006C112.938 23.8048 113.871 23.8048 114.565 24.3005L129.987 35.3005C130.887 35.9419 131.096 37.1908 130.454 38.0901C129.813 38.9893 128.564 39.1984 127.665 38.557L113.404 28.3854L100.988 37.2434C100.088 37.8849 98.8394 37.676 98.1979 36.7768C97.5564 35.8776 97.7654 34.6286 98.6646 33.9871L112.243 24.3006Z" fill="#75ACC6"/>
</svg>
