<svg width="106" height="119" viewBox="0 0 106 119" fill="none" xmlns="http://www.w3.org/2000/svg">
<path fill-rule="evenodd" clip-rule="evenodd" d="M14.3152 43.1904C14.3152 42.0859 15.2106 41.1904 16.3152 41.1904H89.6156C90.7202 41.1904 91.6156 42.0859 91.6156 43.1904C91.6156 44.295 90.7202 45.1904 89.6156 45.1904H16.3152C15.2106 45.1904 14.3152 44.295 14.3152 43.1904Z" fill="#75ACC6"/>
<path fill-rule="evenodd" clip-rule="evenodd" d="M7.69629 27.1108C8.80086 27.1108 9.69629 28.0063 9.69629 29.1108V114.66H95.7104V94.5664C95.7104 93.4618 96.6059 92.5664 97.7104 92.5664C98.815 92.5664 99.7104 93.4618 99.7104 94.5664V116.66C99.7104 117.764 98.815 118.66 97.7104 118.66H7.69629C6.59172 118.66 5.69629 117.764 5.69629 116.66V29.1108C5.69629 28.0063 6.59172 27.1108 7.69629 27.1108Z" fill="#75ACC6"/>
<path fill-rule="evenodd" clip-rule="evenodd" d="M97.7104 27.0359C98.815 27.0359 99.7104 27.9313 99.7104 29.0359V81.0858C99.7104 82.1904 98.815 83.0858 97.7104 83.0858C96.6059 83.0858 95.7104 82.1904 95.7104 81.0858V29.0359C95.7104 27.9313 96.6059 27.0359 97.7104 27.0359Z" fill="#75ACC6"/>
<path fill-rule="evenodd" clip-rule="evenodd" d="M52.2092 0.14853C52.696 -0.0503249 53.2415 -0.0494761 53.7277 0.150893L104.244 20.9708C105.265 21.3917 105.751 22.5608 105.331 23.5821C104.91 24.6033 103.741 25.09 102.719 24.6691L52.9622 4.16182L2.75638 24.6714C1.73385 25.0891 0.566286 24.5988 0.148569 23.5763C-0.269149 22.5538 0.221155 21.3862 1.24369 20.9685L52.2092 0.14853Z" fill="#75ACC6"/>
<path fill-rule="evenodd" clip-rule="evenodd" d="M41.822 85.5044C41.822 84.3998 42.7175 83.5044 43.822 83.5044H62.1097C63.2142 83.5044 64.1097 84.3998 64.1097 85.5044V116.659C64.1097 117.764 63.2142 118.659 62.1097 118.659H43.822C42.7175 118.659 41.822 117.764 41.822 116.659V85.5044ZM45.822 87.5044V114.659H60.1097V87.5044H45.822Z" fill="#75ACC6"/>
<path fill-rule="evenodd" clip-rule="evenodd" d="M0.225098 116.66C0.225098 115.555 1.12053 114.66 2.2251 114.66H103.706C104.811 114.66 105.706 115.555 105.706 116.66C105.706 117.764 104.811 118.66 103.706 118.66H2.2251C1.12053 118.66 0.225098 117.764 0.225098 116.66Z" fill="#75ACC6"/>
<path fill-rule="evenodd" clip-rule="evenodd" d="M97.7104 85.9011C98.815 85.9011 99.7104 86.7966 99.7104 87.9011V87.9768C99.7104 89.0814 98.815 89.9768 97.7104 89.9768C96.6059 89.9768 95.7104 89.0814 95.7104 87.9768V87.9011C95.7104 86.7966 96.6059 85.9011 97.7104 85.9011Z" fill="#75ACC6"/>
<path fill-rule="evenodd" clip-rule="evenodd" d="M13.8655 72.5481C13.8655 71.4435 14.7609 70.5481 15.8655 70.5481H89.1659C90.2705 70.5481 91.1659 71.4435 91.1659 72.5481C91.1659 73.6527 90.2705 74.5481 89.1659 74.5481H15.8655C14.7609 74.5481 13.8655 73.6527 13.8655 72.5481Z" fill="#75ACC6"/>
<path fill-rule="evenodd" clip-rule="evenodd" d="M44.9695 20.6479C44.9695 19.5434 45.8649 18.6479 46.9695 18.6479H58.6616C59.7661 18.6479 60.6616 19.5434 60.6616 20.6479V27.9125C60.6616 29.017 59.7661 29.9125 58.6616 29.9125H46.9695C45.8649 29.9125 44.9695 29.017 44.9695 27.9125V20.6479ZM48.9695 22.6479V25.9125H56.6616V22.6479H48.9695Z" fill="#75ACC6"/>
<path fill-rule="evenodd" clip-rule="evenodd" d="M44.9695 53.9001C44.9695 52.7956 45.8649 51.9001 46.9695 51.9001H58.6616C59.7661 51.9001 60.6616 52.7956 60.6616 53.9001V61.1647C60.6616 62.2692 59.7661 63.1647 58.6616 63.1647H46.9695C45.8649 63.1647 44.9695 62.2692 44.9695 61.1647V53.9001ZM48.9695 55.9001V59.1647H56.6616V55.9001H48.9695Z" fill="#75ACC6"/>
</svg>
