<svg width="95" height="95" viewBox="0 0 95 95" fill="none" xmlns="http://www.w3.org/2000/svg">
<path fill-rule="evenodd" clip-rule="evenodd" d="M7.65967 27.7603C8.76424 27.7603 9.65967 28.6557 9.65967 29.7603V90.1712H84.6722V69.9623C84.6722 68.8577 85.5676 67.9623 86.6722 67.9623C87.7768 67.9623 88.6722 68.8577 88.6722 69.9623V92.1712C88.6722 93.2758 87.7768 94.1712 86.6722 94.1712H7.65967C6.5551 94.1712 5.65967 93.2758 5.65967 92.1712V29.7603C5.65967 28.6557 6.5551 27.7603 7.65967 27.7603Z" fill="#75ACC6"/>
<path fill-rule="evenodd" clip-rule="evenodd" d="M86.6724 27.6851C87.7769 27.6851 88.6724 28.5805 88.6724 29.6851V56.4111C88.6724 57.5157 87.7769 58.4111 86.6724 58.4111C85.5678 58.4111 84.6724 57.5157 84.6724 56.4111V29.6851C84.6724 28.5805 85.5678 27.6851 86.6724 27.6851Z" fill="#75ACC6"/>
<path fill-rule="evenodd" clip-rule="evenodd" d="M46.5897 0.690843C47.1232 0.445049 47.7378 0.446207 48.2703 0.69401L93.2501 21.6231C94.2516 22.0891 94.6857 23.2787 94.2197 24.2802C93.7537 25.2817 92.5641 25.7158 91.5627 25.2498L47.4225 4.7113L2.83689 25.2529C1.83368 25.7152 0.645719 25.2766 0.183514 24.2734C-0.278692 23.2701 0.159883 22.0822 1.1631 21.62L46.5897 0.690843Z" fill="#75ACC6"/>
<path fill-rule="evenodd" clip-rule="evenodd" d="M36.3411 60.853C36.3411 59.7485 37.2365 58.853 38.3411 58.853H56.5117C57.6163 58.853 58.5117 59.7485 58.5117 60.853V92.1715C58.5117 93.276 57.6163 94.1715 56.5117 94.1715H38.3411C37.2365 94.1715 36.3411 93.276 36.3411 92.1715V60.853ZM40.3411 62.853V90.1715H54.5117V62.853H40.3411Z" fill="#75ACC6"/>
<path fill-rule="evenodd" clip-rule="evenodd" d="M0.223389 92.1714C0.223389 91.0668 1.11882 90.1714 2.22339 90.1714H92.6298C93.7344 90.1714 94.6298 91.0668 94.6298 92.1714C94.6298 93.276 93.7344 94.1714 92.6298 94.1714H2.22339C1.11882 94.1714 0.223389 93.276 0.223389 92.1714Z" fill="#75ACC6"/>
<path fill-rule="evenodd" clip-rule="evenodd" d="M86.6724 61.262C87.7769 61.262 88.6724 62.1574 88.6724 63.262V63.4131C88.6724 64.5176 87.7769 65.4131 86.6724 65.4131C85.5678 65.4131 84.6724 64.5176 84.6724 63.4131V63.262C84.6724 62.1574 85.5678 61.262 86.6724 61.262Z" fill="#75ACC6"/>
<path fill-rule="evenodd" clip-rule="evenodd" d="M13.7771 45.5701C13.7771 44.4655 14.6725 43.5701 15.7771 43.5701H78.1829C79.2874 43.5701 80.1829 44.4655 80.1829 45.5701C80.1829 46.6746 79.2874 47.5701 78.1829 47.5701H15.7771C14.6725 47.5701 13.7771 46.6746 13.7771 45.5701Z" fill="#75ACC6"/>
<path fill-rule="evenodd" clip-rule="evenodd" d="M39.6182 22.3071C39.6182 21.2026 40.5136 20.3071 41.6182 20.3071H53.2355C54.34 20.3071 55.2355 21.2026 55.2355 22.3071V29.6097C55.2355 30.7143 54.34 31.6097 53.2355 31.6097H41.6182C40.5136 31.6097 39.6182 30.7143 39.6182 29.6097V22.3071ZM43.6182 24.3071V27.6097H51.2355V24.3071H43.6182Z" fill="#75ACC6"/>
</svg>
