<?xml version="1.0" encoding="utf-8"?><svg viewBox="0 0 603 150" xmlns="http://www.w3.org/2000/svg" xmlns:xlink="http://www.w3.org/1999/xlink"><style>:root>svg{display:none}:root>svg:target{display:block}</style><svg fill="none" viewBox="0 0 96 56" id="cloud-big" xmlns="http://www.w3.org/2000/svg"><path d="M81.55 22.6c-1.261-8.034-8.257-14.2-16.675-14.2-3.167 0-6.21.872-8.85 2.5C52.01 4.18 44.782 0 36.75 0c-12.406 0-22.5 10.049-22.5 22.4 0 .077 0 .156.003.232C6.279 23.97 0 30.89 0 39.2 0 48.464 7.757 56 17.063 56h61.874C88.243 56 96 48.464 96 39.2c0-8.38-6.381-15.345-14.45-16.6z" fill="#F0F7FA"/></svg><svg fill="none" viewBox="0 0 74 43" id="cloud-medium" xmlns="http://www.w3.org/2000/svg"><path d="M62.861 17.353C61.89 11.185 56.497 6.45 50.008 6.45c-2.441 0-4.787.67-6.822 1.92C40.091 3.21 34.52 0 28.328 0c-9.563 0-17.344 7.716-17.344 17.2 0 .059 0 .12.002.178C4.84 18.405 0 23.72 0 30.1 0 37.214 5.98 43 13.152 43h47.696C68.02 43 74 37.214 74 30.1c0-6.435-4.919-11.783-11.139-12.747z" fill="#F0F7FA"/></svg><svg fill="none" viewBox="0 0 48 28" id="cloud-small" xmlns="http://www.w3.org/2000/svg"><path d="M40.775 11.3c-.63-4.017-4.128-7.1-8.337-7.1a8.406 8.406 0 00-4.425 1.25A11.178 11.178 0 0018.375 0c-6.203 0-11.25 5.024-11.25 11.2l.001.116C3.14 11.985 0 15.446 0 19.6 0 24.232 3.879 28 8.531 28H39.47C44.12 28 48 24.232 48 19.6c0-4.19-3.19-7.673-7.225-8.3z" fill="#F0F7FA"/></svg><svg fill="none" viewBox="0 0 133 86" id="garage-attached" xmlns="http://www.w3.org/2000/svg"><path fill-rule="evenodd" clip-rule="evenodd" d="M7.714 31.274a2 2 0 012 2V80.89h55.465V33.274a2 2 0 014 0V82.89a2 2 0 01-2 2H7.714a2 2 0 01-2-2V33.274a2 2 0 012-2zM36.286.398a2 2 0 012.396 0l33.153 24.81a2 2 0 11-2.396 3.202L37.484 4.498 3.198 30.139a2 2 0 11-2.396-3.203L36.286.398z" fill="#75ACC6"/><path fill-rule="evenodd" clip-rule="evenodd" d="M26.312 51.617a2 2 0 012-2h18.344a2 2 0 012 2v31.274a2 2 0 01-2 2H28.312a2 2 0 01-2-2V51.617zm4 2v27.274h14.344V53.617H30.312zM29.62 25.004a2 2 0 012-2h11.728a2 2 0 012 2v11.202a2 2 0 01-2 2H31.62a2 2 0 01-2-2V25.004zm4 2v7.202h7.728v-7.202H33.62z" fill="#75ACC6"/><path fill-rule="evenodd" clip-rule="evenodd" d="M.376 82.891a2 2 0 012-2h64.803a2 2 0 110 4H2.376a2 2 0 01-2-2zM68.637 26.809a2 2 0 012-2h45.633a2 2 0 110 4H70.637a2 2 0 01-2-2zM72.772 50.64a2 2 0 012-2h41.498a2 2 0 012 2V82.89a2 2 0 01-2 2H74.772a2 2 0 01-2-2V50.64zm4 2V80.89h37.498V52.64H76.772zM72.772 43.573a2 2 0 012-2h55.631a2 2 0 110 4H74.772a2 2 0 01-2-2z" fill="#75ACC6"/><path fill-rule="evenodd" clip-rule="evenodd" d="M114.954 25.303a2 2 0 012.822.19l14.659 16.764a2 2 0 11-3.011 2.633l-14.66-16.765a2 2 0 01.19-2.822zM123.562 71.419a2 2 0 012 2v9.848a2 2 0 11-4 0v-9.848a2 2 0 012-2zM123.562 48.64a2 2 0 012 2v8.495a2 2 0 11-4 0V50.64a2 2 0 012-2zM123.562 63.976a2 2 0 012 2v.226a2 2 0 11-4 0v-.226a2 2 0 012-2z" fill="#75ACC6"/></svg><svg fill="none" viewBox="0 0 120 104" id="garage-attached-in" xmlns="http://www.w3.org/2000/svg"><g opacity=".5"><path fill-rule="evenodd" clip-rule="evenodd" d="M7.426 30.274a2 2 0 012 2v67.323l100.953-.35a2 2 0 01.014 4l-102.96.357a2 2 0 01-2.007-2v-69.33a2 2 0 012-2zM58.963.167a2 2 0 011.6 0l57.692 25.205a2 2 0 01-1.601 3.665L59.763 4.182 2.8 29.037a2 2 0 11-1.6-3.666L58.963.167z" fill="#75ACC6"/><path fill-rule="evenodd" clip-rule="evenodd" d="M52.765 24.849a2 2 0 012-2h10.924a2 2 0 012 2v10.638a2 2 0 01-2 2H54.765a2 2 0 01-2-2V24.85zm4 2v6.638h6.924V26.85h-6.924z" fill="#75ACC6"/><path d="M30.346 101.247h82.539" stroke="#75ACC6" stroke-width="4" stroke-miterlimit="10" stroke-linecap="round" stroke-linejoin="round"/><path fill-rule="evenodd" clip-rule="evenodd" d="M112.885 76.827a2 2 0 012 2v21.492a2 2 0 01-4 0V78.827a2 2 0 012-2zM112.885 30.917a2 2 0 012 2v31.63a2 2 0 01-4 0v-31.63a2 2 0 012-2zM112.885 69.83a2 2 0 012 2v.072a2 2 0 01-4 0v-.072a2 2 0 012-2zM45 66a2 2 0 012-2h54a2 2 0 012 2v35a2 2 0 01-2 2H47a2 2 0 01-2-2V66zm4 2v31h50V68H49zM13.365 50.53a2 2 0 012-2h88.11a2 2 0 110 4h-88.11a2 2 0 01-2-2zM15 66a2 2 0 012-2h19a2 2 0 012 2v35a2 2 0 01-2 2H17a2 2 0 01-2-2V66zm4 2v31h15V68H19z" fill="#75ACC6"/></g></svg><svg fill="none" viewBox="0 0 154 85" id="garage-detached" xmlns="http://www.w3.org/2000/svg"><path fill-rule="evenodd" clip-rule="evenodd" d="M7.714 30.522a2 2 0 012 2v48.369h57.465a2 2 0 010 4H7.714a2 2 0 01-2-2V32.522a2 2 0 012-2z" fill="#75ACC6"/><path fill-rule="evenodd" clip-rule="evenodd" d="M36.286.398a2 2 0 012.396 0l35.484 26.538a2 2 0 01-2.396 3.203L37.484 4.497 3.198 30.14a2 2 0 11-2.396-3.203L36.286.398zM26.312 51.617a2 2 0 012-2h18.344a2 2 0 012 2v31.274a2 2 0 01-2 2H28.312a2 2 0 01-2-2V51.617zm4 2v27.274h14.344V53.617H30.312z" fill="#75ACC6"/><path fill-rule="evenodd" clip-rule="evenodd" d="M29.62 25.004a2 2 0 012-2h11.728a2 2 0 012 2v11.202a2 2 0 01-2 2H31.62a2 2 0 01-2-2V25.004zm4 2v7.202h7.728v-7.202H33.62zM.376 82.891a2 2 0 012-2h70.968a2 2 0 110 4H2.376a2 2 0 01-2-2z" fill="#75ACC6"/><path fill-rule="evenodd" clip-rule="evenodd" d="M69.209 57.285a2 2 0 012 2v22.629a2 2 0 11-4 0V59.285a2 2 0 012-2zM69.209 31.5a2 2 0 012 2v10.75a2 2 0 01-4 0V33.5a2 2 0 012-2zM69.209 49.918a2 2 0 012 2v.075a2 2 0 01-4 0v-.075a2 2 0 012-2zM94.995 49.692a2 2 0 012 2v31.124a2 2 0 11-4 0V51.692a2 2 0 012-2zM151.679 49.692a2 2 0 012 2v31.124a2 2 0 01-4 0V51.692a2 2 0 012-2zM122.623 32.984a2 2 0 011.427 0l28.342 10.826a2 2 0 11-1.427 3.736l-27.628-10.553-27.629 10.553a2 2 0 01-1.427-3.736l28.342-10.826zM100.588 51.542a2 2 0 012-2h41.498a2 2 0 012 2v31.274a2 2 0 01-2 2h-41.498a2 2 0 01-2-2V51.542zm4 2v27.274h37.498V53.542h-37.498z" fill="#75ACC6"/></svg><svg fill="none" viewBox="0 0 76 85" id="garage-no" xmlns="http://www.w3.org/2000/svg"><path fill-rule="evenodd" clip-rule="evenodd" d="M7.714 30.55a2 2 0 012 2v48.37h57.465a2 2 0 010 4H7.714a2 2 0 01-2-2V32.55a2 2 0 012-2z" fill="#75ACC6"/><path fill-rule="evenodd" clip-rule="evenodd" d="M36.286.426a2 2 0 012.396 0l35.484 26.538a2 2 0 01-2.396 3.203L37.484 4.526 3.198 30.167a2 2 0 01-2.396-3.203L36.286.426zM26.312 51.645a2 2 0 012-2h18.344a2 2 0 012 2V82.92a2 2 0 01-2 2H28.312a2 2 0 01-2-2V51.645zm4 2V80.92h14.344V53.645H30.312z" fill="#75ACC6"/><path fill-rule="evenodd" clip-rule="evenodd" d="M29.62 25.032a2 2 0 012-2h11.728a2 2 0 012 2v11.202a2 2 0 01-2 2H31.62a2 2 0 01-2-2V25.032zm4 2v7.202h7.728v-7.202H33.62zM.376 82.92a2 2 0 012-2h70.968a2 2 0 110 4H2.376a2 2 0 01-2-2z" fill="#75ACC6"/><path fill-rule="evenodd" clip-rule="evenodd" d="M68.833 57.238a2 2 0 012 2v22.629a2 2 0 11-4 0V59.238a2 2 0 012-2zM68.833 31.377a2 2 0 012 2v10.826a2 2 0 01-4 0V33.377a2 2 0 012-2zM68.833 49.796a2 2 0 012 2v.451a2 2 0 01-4 0v-.451a2 2 0 012-2z" fill="#75ACC6"/></svg><svg fill="none" viewBox="0 0 46 38" id="logo" xmlns="http://www.w3.org/2000/svg"><path d="M8.85 37.244l-8.28-8.28 8.483-8.482L28.964.571 41.894 13.5a9.4 9.4 0 01.038 13.258l-.002.002-.475.475H30.966v-1.177c0-.24-.115-.44-.244-.568a.812.812 0 00-.568-.244H28.36c-.241 0-.44.115-.569.244a.812.812 0 00-.244.568v4.914l-.677-.489v-3.248h-7.21c-.694 0-1.324.299-1.796.771h0l-.005.004-9.008 9.234z" fill="#26DEFF" stroke="#26DEFF"/><path d="M30.427 27.736v-1.717a.336.336 0 00-.312-.312H28.32a.336.336 0 00-.313.312v5.93l-1.677-1.21v-3.003h-6.71c-.546 0-1.053.234-1.443.624l-9.362 9.596h4.798l6.436-6.436 1.912 1.911a9.865 9.865 0 0013.965 0l5.696-5.695H30.427z" fill="#135C7D"/></svg><svg fill="none" viewBox="0 0 603 150" id="price" xmlns="http://www.w3.org/2000/svg"><path d="M39.642 125.928a.251.251 0 01.224-.128h1.472c.053 0 .096.021.128.064a.152.152 0 01.064.128v10.816a.2.2 0 01-.064.144.173.173 0 01-.128.048h-1.472a.234.234 0 01-.144-.048.235.235 0 01-.048-.144v-7.632c0-.032-.016-.053-.048-.064-.021-.011-.037 0-.048.032l-2 3.072a.251.251 0 01-.224.128h-.736a.251.251 0 01-.224-.128l-2.016-3.056c-.01-.032-.032-.043-.064-.032-.022.011-.032.032-.032.064v7.616a.2.2 0 01-.064.144.173.173 0 01-.128.048h-1.472a.234.234 0 01-.144-.048.235.235 0 01-.048-.144v-10.816c0-.053.016-.096.048-.128a.198.198 0 01.144-.064h1.472c.096 0 .17.043.224.128l2.608 3.952c.021.021.043.032.064.032.021 0 .037-.011.048-.032l2.608-3.952zm5.101 1.776c-.33 0-.602-.107-.816-.32a1.104 1.104 0 01-.32-.816c0-.331.107-.603.32-.816.214-.213.486-.32.816-.32.331 0 .603.107.816.32.214.213.32.485.32.816 0 .331-.106.603-.32.816-.213.213-.485.32-.816.32zM43.975 137a.234.234 0 01-.144-.048.235.235 0 01-.048-.144V129c0-.053.016-.096.048-.128a.198.198 0 01.144-.064h1.472c.054 0 .096.021.128.064a.152.152 0 01.064.128v7.808a.2.2 0 01-.064.144.173.173 0 01-.128.048h-1.472zm7.71-8.304c.864 0 1.552.256 2.064.768.523.512.784 1.211.784 2.096v5.248a.2.2 0 01-.064.144.173.173 0 01-.128.048H52.87a.234.234 0 01-.144-.048.235.235 0 01-.048-.144v-4.864c0-.491-.138-.885-.416-1.184-.277-.309-.645-.464-1.104-.464-.458 0-.832.149-1.12.448-.277.299-.416.693-.416 1.184v4.88a.2.2 0 01-.064.144.173.173 0 01-.128.048h-1.472a.234.234 0 01-.144-.048.235.235 0 01-.048-.144v-7.792c0-.053.016-.096.048-.128a.198.198 0 01.144-.064h1.472c.054 0 .096.021.128.064a.152.152 0 01.064.128v.512c0 .032.011.053.032.064.022.011.038 0 .048-.032.438-.576 1.1-.864 1.984-.864zm5.84-.992c-.331 0-.603-.107-.816-.32-.214-.213-.32-.485-.32-.816 0-.331.106-.603.32-.816.213-.213.485-.32.816-.32.33 0 .602.107.816.32.213.213.32.485.32.816 0 .331-.107.603-.32.816-.214.213-.486.32-.816.32zM56.757 137a.234.234 0 01-.144-.048.235.235 0 01-.048-.144V129c0-.053.016-.096.048-.128a.197.197 0 01.144-.064h1.472c.053 0 .096.021.128.064a.153.153 0 01.064.128v7.808a.2.2 0 01-.064.144.173.173 0 01-.128.048h-1.472zm12.542-8.304c.821 0 1.461.251 1.92.752.469.491.704 1.179.704 2.064v5.296a.2.2 0 01-.064.144.173.173 0 01-.128.048h-1.456a.234.234 0 01-.144-.048.235.235 0 01-.048-.144v-4.912c0-.491-.134-.88-.4-1.168-.256-.288-.603-.432-1.04-.432-.438 0-.795.144-1.072.432-.278.288-.416.672-.416 1.152v4.928a.2.2 0 01-.064.144.173.173 0 01-.128.048h-1.456a.234.234 0 01-.144-.048.235.235 0 01-.048-.144v-4.912c0-.491-.134-.88-.4-1.168-.267-.288-.619-.432-1.056-.432-.406 0-.742.117-1.008.352-.256.235-.406.555-.448.96v5.2a.2.2 0 01-.064.144.173.173 0 01-.128.048h-1.472a.234.234 0 01-.144-.048.235.235 0 01-.048-.144v-7.792c0-.053.016-.096.048-.128a.198.198 0 01.144-.064h1.472c.053 0 .096.021.128.064a.152.152 0 01.064.128v.528c0 .032.01.053.032.064.021.011.042 0 .064-.032a2.08 2.08 0 01.864-.656 2.967 2.967 0 011.168-.224c.522 0 .981.107 1.376.32.394.213.698.523.912.928.032.043.069.043.112 0 .234-.427.56-.741.976-.944.416-.203.88-.304 1.392-.304zm9.345.32c0-.053.016-.096.048-.128a.198.198 0 01.144-.064h1.456c.054 0 .096.021.128.064a.152.152 0 01.064.128v7.792a.2.2 0 01-.064.144.173.173 0 01-.128.048h-1.456a.234.234 0 01-.144-.048.235.235 0 01-.048-.144v-.512c0-.032-.01-.053-.032-.064-.021-.011-.042 0-.064.032-.437.565-1.093.848-1.968.848-.81 0-1.493-.235-2.048-.704-.544-.469-.816-1.136-.816-2v-5.392c0-.053.016-.096.048-.128a.198.198 0 01.144-.064h1.472c.054 0 .096.021.128.064a.152.152 0 01.064.128v4.864c0 .501.128.901.384 1.2.267.299.635.448 1.104.448.48 0 .864-.149 1.152-.448.288-.299.432-.699.432-1.2v-4.864zm12.577-.32c.82 0 1.46.251 1.92.752.469.491.704 1.179.704 2.064v5.296a.2.2 0 01-.064.144.173.173 0 01-.128.048h-1.456a.234.234 0 01-.144-.048.235.235 0 01-.048-.144v-4.912c0-.491-.134-.88-.4-1.168-.256-.288-.603-.432-1.04-.432-.438 0-.795.144-1.072.432-.278.288-.416.672-.416 1.152v4.928a.2.2 0 01-.064.144.173.173 0 01-.128.048h-1.456a.234.234 0 01-.144-.048.235.235 0 01-.048-.144v-4.912c0-.491-.134-.88-.4-1.168-.267-.288-.62-.432-1.056-.432-.406 0-.742.117-1.008.352-.256.235-.406.555-.448.96v5.2a.2.2 0 01-.064.144.173.173 0 01-.128.048H82.66a.234.234 0 01-.144-.048.235.235 0 01-.048-.144v-7.792c0-.053.016-.096.048-.128a.197.197 0 01.144-.064h1.472c.053 0 .096.021.128.064a.153.153 0 01.064.128v.528c0 .032.01.053.032.064.02.011.042 0 .064-.032.234-.299.522-.517.864-.656a2.967 2.967 0 011.168-.224c.522 0 .98.107 1.376.32.394.213.698.523.912.928.032.043.069.043.112 0 .234-.427.56-.741.976-.944.416-.203.88-.304 1.392-.304zM271.268 137c-.106 0-.176-.053-.208-.16l-.528-1.712c-.021-.043-.048-.064-.08-.064h-4.224c-.032 0-.058.021-.08.064l-.528 1.712c-.032.107-.101.16-.208.16h-1.6c-.064 0-.112-.016-.144-.048-.032-.043-.037-.101-.016-.176l3.472-10.816c.032-.107.102-.16.208-.16h2c.107 0 .176.053.208.16l3.488 10.816a.173.173 0 01.016.08c0 .096-.058.144-.176.144h-1.6zm-4.624-3.488c-.01.064.011.096.064.096h3.248c.064 0 .086-.032.064-.096l-1.648-5.36c-.01-.043-.026-.064-.048-.064-.021 0-.037.021-.048.064l-1.632 5.36zm9.384 3.488c-.107 0-.176-.053-.208-.16l-2.576-7.808a.173.173 0 01-.016-.08c0-.096.059-.144.176-.144h1.632c.117 0 .192.053.224.16l1.552 5.344c.011.032.027.048.048.048s.037-.016.048-.048l1.552-5.344c.032-.107.107-.16.224-.16l1.632.032c.064 0 .112.021.144.064.032.032.037.085.016.16l-2.56 7.776c-.032.107-.101.16-.208.16h-1.68zm12.313-5.008c.043.267.064.565.064.896l-.016.496c0 .128-.064.192-.192.192h-5.008c-.053 0-.08.027-.08.08.032.352.08.592.144.72.256.768.88 1.157 1.872 1.168.725 0 1.301-.299 1.728-.896.043-.064.096-.096.16-.096.043 0 .08.016.112.048l.992.816c.096.075.112.16.048.256a3.26 3.26 0 01-1.328 1.088c-.544.256-1.152.384-1.824.384-.832 0-1.541-.187-2.128-.56-.576-.373-.997-.896-1.264-1.568-.245-.576-.368-1.376-.368-2.4 0-.619.064-1.12.192-1.504.213-.747.613-1.333 1.2-1.76.597-.437 1.312-.656 2.144-.656 2.101 0 3.285 1.099 3.552 3.296zm-3.552-1.696c-.395 0-.725.101-.992.304-.256.192-.437.464-.544.816a2.76 2.76 0 00-.128.704c-.021.053 0 .08.064.08h3.248c.053 0 .08-.027.08-.08a2.97 2.97 0 00-.096-.608c-.096-.384-.288-.683-.576-.896-.277-.213-.629-.32-1.056-.32zm9.12-1.568c.342 0 .64.069.896.208.086.043.118.123.096.24l-.272 1.44c-.01.128-.085.165-.224.112a1.78 1.78 0 00-.56-.08c-.138 0-.245.005-.32.016a1.634 1.634 0 00-1.12.48c-.298.288-.448.667-.448 1.136v4.528a.199.199 0 01-.064.144.172.172 0 01-.128.048h-1.472a.235.235 0 01-.144-.048.235.235 0 01-.048-.144v-7.792c0-.053.016-.096.048-.128a.199.199 0 01.144-.064h1.472a.15.15 0 01.128.064.152.152 0 01.064.128v.72c0 .043.006.069.016.08.022 0 .043-.016.064-.048.448-.693 1.072-1.04 1.872-1.04zm5.25-.032c.672 0 1.264.117 1.776.352s.907.56 1.184.976c.277.405.416.869.416 1.392v5.392a.199.199 0 01-.064.144.174.174 0 01-.128.048h-1.472a.235.235 0 01-.144-.048.235.235 0 01-.048-.144v-.512c0-.032-.011-.048-.032-.048-.021-.011-.043-.005-.064.016-.523.576-1.28.864-2.272.864-.8 0-1.461-.203-1.984-.608-.512-.405-.768-1.008-.768-1.808 0-.832.288-1.477.864-1.936.587-.469 1.408-.704 2.464-.704h1.712c.053 0 .08-.027.08-.08v-.384c0-.416-.123-.736-.368-.96-.245-.235-.613-.352-1.104-.352-.405 0-.736.075-.992.224a.919.919 0 00-.464.592c-.032.128-.107.181-.224.16l-1.552-.192a.609.609 0 01-.144-.048c-.032-.032-.043-.069-.032-.112.085-.651.432-1.184 1.04-1.6.619-.416 1.392-.624 2.32-.624zm-.384 6.96c.523 0 .971-.139 1.344-.416.373-.277.56-.629.56-1.056v-.752c0-.053-.027-.08-.08-.08h-1.344c-.565 0-1.013.107-1.344.32-.32.213-.48.517-.48.912 0 .341.123.608.368.8.256.181.581.272.976.272zm10.631-6.64c0-.053.016-.096.048-.128a.199.199 0 01.144-.064h1.472a.15.15 0 01.128.064.152.152 0 01.064.128v7.44c0 1.333-.384 2.283-1.152 2.848-.757.576-1.754.864-2.992.864-.33 0-.656-.016-.976-.048-.117-.011-.176-.08-.176-.208l.048-1.312c0-.117.075-.176.224-.176.31.032.587.048.832.048.8 0 1.387-.16 1.76-.48.384-.309.576-.837.576-1.584v-.128c0-.032-.01-.048-.032-.048-.021-.011-.042-.005-.064.016-.437.469-1.056.704-1.856.704a3.582 3.582 0 01-1.904-.528c-.576-.352-.976-.891-1.2-1.616-.138-.501-.208-1.147-.208-1.936 0-.885.086-1.563.256-2.032a3.056 3.056 0 011.104-1.552c.523-.395 1.136-.592 1.84-.592.843 0 1.499.245 1.968.736.022.032.043.043.064.032.022-.011.032-.032.032-.064v-.384zm-.112 5.264c.043-.16.07-.331.08-.512.022-.192.032-.496.032-.912 0-.405-.01-.693-.032-.864a2.138 2.138 0 00-.096-.528 1.501 1.501 0 00-.528-.848c-.256-.213-.586-.32-.992-.32-.384 0-.709.107-.976.32a1.784 1.784 0 00-.576.848c-.128.299-.192.768-.192 1.408 0 .661.054 1.125.16 1.392.107.341.299.624.576.848.288.213.63.32 1.024.32.416 0 .752-.107 1.008-.32.256-.213.427-.491.512-.832zm10.782-2.288c.042.267.064.565.064.896l-.016.496c0 .128-.064.192-.192.192h-5.008c-.054 0-.08.027-.08.08.032.352.08.592.144.72.256.768.88 1.157 1.872 1.168.725 0 1.301-.299 1.728-.896.042-.064.096-.096.16-.096.042 0 .08.016.112.048l.992.816c.096.075.112.16.048.256a3.266 3.266 0 01-1.328 1.088c-.544.256-1.152.384-1.824.384-.832 0-1.542-.187-2.128-.56a3.232 3.232 0 01-1.264-1.568c-.246-.576-.368-1.376-.368-2.4 0-.619.064-1.12.192-1.504.213-.747.613-1.333 1.2-1.76.597-.437 1.312-.656 2.144-.656 2.101 0 3.285 1.099 3.552 3.296zm-3.552-1.696c-.395 0-.726.101-.992.304-.256.192-.438.464-.544.816a2.76 2.76 0 00-.128.704c-.022.053 0 .08.064.08h3.248c.053 0 .08-.027.08-.08a3.116 3.116 0 00-.096-.608c-.096-.384-.288-.683-.576-.896-.278-.213-.63-.32-1.056-.32zM511.728 125.928a.251.251 0 01.224-.128h1.472c.053 0 .096.021.128.064a.154.154 0 01.064.128v10.816a.203.203 0 01-.064.144.174.174 0 01-.128.048h-1.472a.231.231 0 01-.144-.048.235.235 0 01-.048-.144v-7.632c0-.032-.016-.053-.048-.064-.022-.011-.038 0-.048.032l-2 3.072a.252.252 0 01-.224.128h-.736a.251.251 0 01-.224-.128l-2.016-3.056c-.011-.032-.032-.043-.064-.032-.022.011-.032.032-.032.064v7.616a.203.203 0 01-.064.144.174.174 0 01-.128.048h-1.472a.231.231 0 01-.144-.048.235.235 0 01-.048-.144v-10.816c0-.053.016-.096.048-.128a.196.196 0 01.144-.064h1.472c.096 0 .17.043.224.128l2.608 3.952c.021.021.042.032.064.032.021 0 .037-.011.048-.032l2.608-3.952zm7.165 2.768c.672 0 1.264.117 1.776.352s.907.56 1.184.976a2.4 2.4 0 01.416 1.392v5.392a.199.199 0 01-.064.144.172.172 0 01-.128.048h-1.472a.235.235 0 01-.144-.048.235.235 0 01-.048-.144v-.512c0-.032-.01-.048-.032-.048-.021-.011-.042-.005-.064.016-.522.576-1.28.864-2.272.864-.8 0-1.461-.203-1.984-.608-.512-.405-.768-1.008-.768-1.808 0-.832.288-1.477.864-1.936.587-.469 1.408-.704 2.464-.704h1.712c.054 0 .08-.027.08-.08v-.384c0-.416-.122-.736-.368-.96-.245-.235-.613-.352-1.104-.352-.405 0-.736.075-.992.224a.919.919 0 00-.464.592c-.032.128-.106.181-.224.16l-1.552-.192a.609.609 0 01-.144-.048.112.112 0 01-.032-.112c.086-.651.432-1.184 1.04-1.6.619-.416 1.392-.624 2.32-.624zm-.384 6.96c.523 0 .971-.139 1.344-.416.374-.277.56-.629.56-1.056v-.752c0-.053-.026-.08-.08-.08h-1.344c-.565 0-1.013.107-1.344.32-.32.213-.48.517-.48.912 0 .341.123.608.368.8.256.181.582.272.976.272zm5.192 1.344c-.075 0-.128-.021-.16-.064-.022-.053-.011-.112.032-.176l2.592-3.808a.081.081 0 000-.096l-2.592-3.792a.25.25 0 01-.032-.112c0-.085.053-.128.16-.128h1.568c.096 0 .17.043.224.128l1.664 2.464c.021.021.042.032.064.032.021 0 .037-.011.048-.032l1.664-2.464a.251.251 0 01.224-.128h1.68c.074 0 .122.027.144.08.032.043.026.096-.016.16l-2.592 3.792a.144.144 0 000 .096l2.592 3.808c.021.043.032.08.032.112 0 .085-.054.128-.16.128h-1.568a.251.251 0 01-.224-.128l-1.664-2.464c-.011-.021-.027-.032-.048-.032-.022 0-.043.011-.064.032l-1.664 2.464a.252.252 0 01-.224.128h-1.68zm9.738-9.296c-.331 0-.603-.107-.816-.32-.214-.213-.32-.485-.32-.816 0-.331.106-.603.32-.816.213-.213.485-.32.816-.32.33 0 .602.107.816.32.213.213.32.485.32.816 0 .331-.107.603-.32.816-.214.213-.486.32-.816.32zm-.768 9.296a.231.231 0 01-.144-.048.235.235 0 01-.048-.144V129c0-.053.016-.096.048-.128a.196.196 0 01.144-.064h1.472c.053 0 .096.021.128.064a.154.154 0 01.064.128v7.808a.203.203 0 01-.064.144.174.174 0 01-.128.048h-1.472zm12.542-8.304c.821 0 1.461.251 1.92.752.469.491.704 1.179.704 2.064v5.296a.203.203 0 01-.064.144.174.174 0 01-.128.048h-1.456a.231.231 0 01-.144-.048.235.235 0 01-.048-.144v-4.912c0-.491-.134-.88-.4-1.168-.256-.288-.603-.432-1.04-.432-.438 0-.795.144-1.072.432-.278.288-.416.672-.416 1.152v4.928a.203.203 0 01-.064.144.174.174 0 01-.128.048h-1.456a.231.231 0 01-.144-.048.235.235 0 01-.048-.144v-4.912c0-.491-.134-.88-.4-1.168-.267-.288-.619-.432-1.056-.432-.406 0-.742.117-1.008.352-.256.235-.406.555-.448.96v5.2a.203.203 0 01-.064.144.174.174 0 01-.128.048h-1.472a.231.231 0 01-.144-.048.235.235 0 01-.048-.144v-7.792c0-.053.016-.096.048-.128a.196.196 0 01.144-.064h1.472c.053 0 .096.021.128.064a.154.154 0 01.064.128v.528c0 .032.01.053.032.064.021.011.042 0 .064-.032.234-.299.522-.517.864-.656a2.966 2.966 0 011.168-.224c.522 0 .981.107 1.376.32.394.213.698.523.912.928.032.043.069.043.112 0a2.19 2.19 0 01.976-.944c.416-.203.88-.304 1.392-.304zm9.345.32c0-.053.016-.096.048-.128a.199.199 0 01.144-.064h1.456a.15.15 0 01.128.064.152.152 0 01.064.128v7.792a.199.199 0 01-.064.144.172.172 0 01-.128.048h-1.456a.235.235 0 01-.144-.048.235.235 0 01-.048-.144v-.512c0-.032-.01-.053-.032-.064-.021-.011-.042 0-.064.032-.437.565-1.093.848-1.968.848-.81 0-1.493-.235-2.048-.704-.544-.469-.816-1.136-.816-2v-5.392c0-.053.016-.096.048-.128a.199.199 0 01.144-.064h1.472a.15.15 0 01.128.064.152.152 0 01.064.128v4.864c0 .501.128.901.384 1.2.267.299.635.448 1.104.448.48 0 .864-.149 1.152-.448.288-.299.432-.699.432-1.2v-4.864zm12.577-.32c.821 0 1.461.251 1.92.752.469.491.704 1.179.704 2.064v5.296a.203.203 0 01-.064.144.174.174 0 01-.128.048h-1.456a.231.231 0 01-.144-.048.235.235 0 01-.048-.144v-4.912c0-.491-.134-.88-.4-1.168-.256-.288-.603-.432-1.04-.432-.438 0-.795.144-1.072.432-.278.288-.416.672-.416 1.152v4.928a.203.203 0 01-.064.144.174.174 0 01-.128.048h-1.456a.231.231 0 01-.144-.048.235.235 0 01-.048-.144v-4.912c0-.491-.134-.88-.4-1.168-.267-.288-.619-.432-1.056-.432-.406 0-.742.117-1.008.352-.256.235-.406.555-.448.96v5.2a.203.203 0 01-.064.144.174.174 0 01-.128.048h-1.472a.231.231 0 01-.144-.048.235.235 0 01-.048-.144v-7.792c0-.053.016-.096.048-.128a.196.196 0 01.144-.064h1.472c.053 0 .096.021.128.064a.154.154 0 01.064.128v.528c0 .032.01.053.032.064.021.011.042 0 .064-.032.234-.299.522-.517.864-.656a2.966 2.966 0 011.168-.224c.522 0 .981.107 1.376.32.394.213.698.523.912.928.032.043.069.043.112 0a2.19 2.19 0 01.976-.944c.416-.203.88-.304 1.392-.304zM491.645 126.712a.231.231 0 01-.144-.048.235.235 0 01-.048-.144v-1.6c0-.032-.011-.053-.032-.064-.022-.021-.043-.021-.064 0l-1.472.864a.255.255 0 01-.096.032c-.075 0-.134-.037-.176-.112l-.352-.64a.238.238 0 01-.032-.096c0-.075.037-.133.111-.176l1.489-.816c.053-.032.053-.064 0-.096l-1.489-.784a.192.192 0 01-.111-.112.218.218 0 01.032-.16l.352-.64c.032-.053.069-.085.112-.096a.173.173 0 01.16.016l1.472.848a.066.066 0 00.064 0c.021-.011.032-.032.032-.064v-1.584c0-.053.016-.096.048-.128a.196.196 0 01.144-.064h.704c.053 0 .096.021.128.064a.154.154 0 01.064.128v1.584c0 .032.01.059.032.08.021.011.042.005.064-.016l1.472-.848a.245.245 0 01.096-.032c.074 0 .133.037.176.112l.352.64c.021.043.032.08.032.112 0 .075-.038.128-.112.16l-1.504.784c-.054.032-.054.064 0 .096l1.504.816c.117.064.144.155.08.272l-.352.64a.261.261 0 01-.128.112c-.043.011-.091 0-.144-.032l-1.472-.864c-.022-.021-.043-.021-.064 0-.022.011-.032.032-.032.064v1.6a.203.203 0 01-.064.144.174.174 0 01-.128.048h-.704z" fill="#135C7D"/><path d="M33.843 31.15c0 1.6-.49 2.92-1.47 3.96s-2.32 1.7-4.02 1.98c-.1.04-.15.1-.15.18l.03 1.95c0 .1-.04.18-.12.24-.06.08-.14.12-.24.12h-3c-.1 0-.19-.04-.27-.12a.324.324 0 01-.09-.24l.03-1.98c0-.08-.05-.14-.15-.18-1.7-.34-3.04-1.04-4.02-2.1-.96-1.06-1.44-2.39-1.44-3.99v-.66c0-.1.03-.18.09-.24.08-.08.17-.12.27-.12h3.24c.1 0 .18.04.24.12.08.06.12.14.12.24v.45c0 .8.35 1.48 1.05 2.04.7.54 1.66.81 2.88.81 1.02 0 1.77-.22 2.25-.66.5-.46.75-1.02.75-1.68 0-.48-.15-.88-.45-1.2-.3-.34-.72-.63-1.26-.87-.52-.26-1.35-.61-2.49-1.05-1.3-.46-2.39-.93-3.27-1.41a6.997 6.997 0 01-2.25-1.95c-.6-.84-.9-1.87-.9-3.09 0-1.54.46-2.81 1.38-3.81.94-1.02 2.2-1.68 3.78-1.98.1-.04.15-.1.15-.18l-.06-2.19c0-.1.03-.18.09-.24.08-.08.17-.12.27-.12h3c.1 0 .18.04.24.12.08.06.12.14.12.24l-.03 2.25c0 .08.05.14.15.18 1.66.34 2.98 1.07 3.96 2.19.98 1.1 1.47 2.45 1.47 4.05v.45c0 .1-.04.19-.12.27-.06.06-.14.09-.24.09h-3.27c-.1 0-.19-.03-.27-.09a.439.439 0 01-.09-.27v-.24c0-.84-.33-1.55-.99-2.13-.66-.6-1.56-.9-2.7-.9-.9 0-1.6.2-2.1.6-.5.4-.75.95-.75 1.65 0 .5.14.92.42 1.26.3.34.74.65 1.32.93.58.28 1.48.64 2.7 1.08 1.34.5 2.4.95 3.18 1.35.78.4 1.48 1 2.1 1.8.62.8.93 1.83.93 3.09zm15.578-4.32c.48.9.72 2.05.72 3.45 0 1.16-.19 2.2-.57 3.12a6.102 6.102 0 01-2.43 2.79c-1.1.68-2.4 1.02-3.9 1.02-1.54 0-2.87-.35-3.99-1.05-1.12-.72-1.93-1.71-2.43-2.97-.36-.88-.54-1.86-.54-2.94v-9.03c0-1.08.28-2.03.84-2.85.58-.84 1.38-1.48 2.4-1.92 1.02-.46 2.19-.69 3.51-.69 1.3 0 2.45.23 3.45.69 1 .44 1.77 1.07 2.31 1.89.56.8.84 1.73.84 2.79v.84c0 .1-.04.19-.12.27-.06.06-.14.09-.24.09h-3.51c-.1 0-.19-.03-.27-.09a.439.439 0 01-.09-.27v-.27c0-.66-.22-1.21-.66-1.65-.44-.44-1.01-.66-1.71-.66-.74 0-1.35.23-1.83.69-.46.44-.69 1.01-.69 1.71v2.82c0 .06.02.1.06.12.04 0 .08-.02.12-.06.82-.7 1.91-1.05 3.27-1.05 1.2 0 2.27.28 3.21.84.96.54 1.71 1.33 2.25 2.37zm-3.96 5.4c.3-.52.45-1.15.45-1.89 0-.8-.16-1.46-.48-1.98-.5-.8-1.23-1.2-2.19-1.2-1.08 0-1.83.41-2.25 1.23-.3.52-.45 1.19-.45 2.01 0 .72.13 1.33.39 1.83.44.88 1.2 1.32 2.28 1.32 1.04 0 1.79-.44 2.25-1.32zm18.67.96c-.04.04-.05.08-.03.12.02.04.06.06.12.06h8.13c.1 0 .18.04.24.12.08.06.12.14.12.24v2.91c0 .1-.04.19-.12.27-.06.06-.14.09-.24.09h-13.5c-.1 0-.19-.03-.27-.09a.439.439 0 01-.09-.27v-2.76c0-.18.06-.33.18-.45.98-.96 1.98-2 3-3.12 1.02-1.14 1.66-1.85 1.92-2.13.56-.66 1.13-1.29 1.71-1.89 1.82-2.02 2.73-3.52 2.73-4.5 0-.7-.25-1.27-.75-1.71-.5-.46-1.15-.69-1.95-.69s-1.45.23-1.95.69c-.5.44-.75 1.03-.75 1.77v.75c0 .1-.04.19-.12.27-.06.06-.14.09-.24.09h-3.54c-.1 0-.19-.03-.27-.09a.439.439 0 01-.09-.27v-1.41c.06-1.08.4-2.03 1.02-2.85.62-.84 1.44-1.48 2.46-1.92 1.04-.44 2.2-.66 3.48-.66 1.42 0 2.65.27 3.69.81 1.06.52 1.87 1.23 2.43 2.13.58.9.87 1.9.87 3 0 .84-.21 1.7-.63 2.58-.42.88-1.05 1.83-1.89 2.85a35.3 35.3 0 01-2.01 2.31c-.72.76-1.79 1.86-3.21 3.3l-.45.45zm18.317 4.14c-2.2 0-3.94-.61-5.22-1.83-1.28-1.24-1.92-2.92-1.92-5.04v-7.92c0-2.08.64-3.73 1.92-4.95 1.28-1.22 3.02-1.83 5.22-1.83 2.2 0 3.94.61 5.22 1.83 1.3 1.22 1.95 2.87 1.95 4.95v7.92c0 2.12-.65 3.8-1.95 5.04-1.28 1.22-3.02 1.83-5.22 1.83zm0-3.63c.9 0 1.61-.27 2.13-.81.54-.56.81-1.3.81-2.22v-8.25c0-.92-.27-1.65-.81-2.19-.52-.56-1.23-.84-2.13-.84-.88 0-1.59.28-2.13.84-.52.54-.78 1.27-.78 2.19v8.25c0 .92.26 1.66.78 2.22.54.54 1.25.81 2.13.81zm17.11 3.63c-2.2 0-3.94-.61-5.22-1.83-1.28-1.24-1.92-2.92-1.92-5.04v-7.92c0-2.08.64-3.73 1.92-4.95 1.28-1.22 3.02-1.83 5.22-1.83 2.199 0 3.939.61 5.219 1.83 1.3 1.22 1.95 2.87 1.95 4.95v7.92c0 2.12-.65 3.8-1.95 5.04-1.28 1.22-3.02 1.83-5.22 1.83zm0-3.63c.899 0 1.609-.27 2.129-.81.54-.56.81-1.3.81-2.22v-8.25c0-.92-.27-1.65-.81-2.19-.52-.56-1.23-.84-2.13-.84-.88 0-1.59.28-2.13.84-.52.54-.78 1.27-.78 2.19v8.25c0 .92.26 1.66.78 2.22.54.54 1.25.81 2.13.81zM511.239 31.15c0 1.6-.49 2.92-1.47 3.96s-2.32 1.7-4.02 1.98c-.1.04-.15.1-.15.18l.03 1.95c0 .1-.04.18-.12.24-.06.08-.14.12-.24.12h-3c-.1 0-.19-.04-.27-.12a.324.324 0 01-.09-.24l.03-1.98c0-.08-.05-.14-.15-.18-1.7-.34-3.04-1.04-4.02-2.1-.96-1.06-1.44-2.39-1.44-3.99v-.66c0-.1.03-.18.09-.24.08-.08.17-.12.27-.12h3.24c.1 0 .18.04.24.12.08.06.12.14.12.24v.45c0 .8.35 1.48 1.05 2.04.7.54 1.66.81 2.88.81 1.02 0 1.77-.22 2.25-.66.5-.46.75-1.02.75-1.68 0-.48-.15-.88-.45-1.2-.3-.34-.72-.63-1.26-.87-.52-.26-1.35-.61-2.49-1.05-1.3-.46-2.39-.93-3.27-1.41a6.997 6.997 0 01-2.25-1.95c-.6-.84-.9-1.87-.9-3.09 0-1.54.46-2.81 1.38-3.81.94-1.02 2.2-1.68 3.78-1.98.1-.04.15-.1.15-.18l-.06-2.19c0-.1.03-.18.09-.24.08-.08.17-.12.27-.12h3c.1 0 .18.04.24.12.08.06.12.14.12.24l-.03 2.25c0 .08.05.14.15.18 1.66.34 2.98 1.07 3.96 2.19.98 1.1 1.47 2.45 1.47 4.05v.45c0 .1-.04.19-.12.27-.06.06-.14.09-.24.09h-3.27c-.1 0-.19-.03-.27-.09a.439.439 0 01-.09-.27v-.24c0-.84-.33-1.55-.99-2.13-.66-.6-1.56-.9-2.7-.9-.9 0-1.6.2-2.1.6-.5.4-.75.95-.75 1.65 0 .5.14.92.42 1.26.3.34.74.65 1.32.93.58.28 1.48.64 2.7 1.08 1.34.5 2.4.95 3.18 1.35.78.4 1.48 1 2.1 1.8.62.8.93 1.83.93 3.09zm15.308-11.34c.34.82.51 1.8.51 2.94v9.03c0 1.08-.28 2.04-.84 2.88-.56.82-1.35 1.46-2.37 1.92-1.02.44-2.19.66-3.51.66-1.3 0-2.45-.22-3.45-.66-1-.46-1.78-1.09-2.34-1.89-.56-.82-.84-1.76-.84-2.82v-.84c0-.1.03-.18.09-.24.08-.08.17-.12.27-.12h3.51c.1 0 .18.04.24.12.08.06.12.14.12.24v.27c0 .66.22 1.21.66 1.65.46.44 1.04.66 1.74.66.74 0 1.34-.22 1.8-.66.46-.46.69-1.04.69-1.74v-2.79c0-.06-.02-.1-.06-.12-.04-.02-.08-.01-.12.03-.82.7-1.9 1.05-3.24 1.05-1.2 0-2.28-.27-3.24-.81-.94-.56-1.68-1.36-2.22-2.4-.5-.94-.75-2.09-.75-3.45 0-1.18.2-2.22.6-3.12.5-1.18 1.3-2.11 2.4-2.79 1.12-.68 2.43-1.02 3.93-1.02 1.52 0 2.84.36 3.96 1.08a5.92 5.92 0 012.46 2.94zm-6.42 6.03c1.04 0 1.79-.41 2.25-1.23.3-.52.45-1.19.45-2.01 0-.66-.13-1.27-.39-1.83-.44-.88-1.2-1.32-2.28-1.32-1.04 0-1.8.44-2.28 1.32-.3.56-.45 1.19-.45 1.89 0 .76.17 1.42.51 1.98.5.8 1.23 1.2 2.19 1.2zm28.963 1.59c.3.98.45 1.93.45 2.85 0 1.02-.16 1.94-.48 2.76-.46 1.28-1.27 2.3-2.43 3.06-1.16.74-2.52 1.11-4.08 1.11-1.52 0-2.86-.36-4.02-1.08a6.071 6.071 0 01-2.43-3c-.2-.52-.35-1.07-.45-1.65v-.06c0-.22.12-.33.36-.33h3.63c.2 0 .33.11.39.33.02.12.05.22.09.3.04.08.07.15.09.21.2.52.5.92.9 1.2.4.28.87.42 1.41.42.56 0 1.05-.15 1.47-.45.42-.3.73-.72.93-1.26.2-.4.3-.92.3-1.56 0-.58-.09-1.1-.27-1.56-.14-.52-.42-.92-.84-1.2-.42-.28-.91-.42-1.47-.42-.56 0-1.08.13-1.56.39s-.8.6-.96 1.02c-.06.2-.19.3-.39.3h-3.69c-.1 0-.19-.03-.27-.09a.439.439 0 01-.09-.27V16.36c0-.1.03-.18.09-.24.08-.08.17-.12.27-.12h12.39c.1 0 .18.04.24.12.08.06.12.14.12.24v2.91c0 .1-.04.19-.12.27-.06.06-.14.09-.24.09h-8.37c-.1 0-.15.05-.15.15l-.03 4.44c0 .14.06.17.18.09.9-.58 1.94-.87 3.12-.87 1.4 0 2.62.36 3.66 1.08 1.06.7 1.81 1.67 2.25 2.91zm9.962 9.9c-2.2 0-3.94-.61-5.22-1.83-1.28-1.24-1.92-2.92-1.92-5.04v-7.92c0-2.08.64-3.73 1.92-4.95 1.28-1.22 3.02-1.83 5.22-1.83 2.2 0 3.94.61 5.22 1.83 1.3 1.22 1.95 2.87 1.95 4.95v7.92c0 2.12-.65 3.8-1.95 5.04-1.28 1.22-3.02 1.83-5.22 1.83zm0-3.63c.9 0 1.61-.27 2.13-.81.54-.56.81-1.3.81-2.22v-8.25c0-.92-.27-1.65-.81-2.19-.52-.56-1.23-.84-2.13-.84-.88 0-1.59.28-2.13.84-.52.54-.78 1.27-.78 2.19v8.25c0 .92.26 1.66.78 2.22.54.54 1.25.81 2.13.81zm17.11 3.63c-2.2 0-3.94-.61-5.22-1.83-1.28-1.24-1.92-2.92-1.92-5.04v-7.92c0-2.08.64-3.73 1.92-4.95 1.28-1.22 3.02-1.83 5.22-1.83 2.2 0 3.94.61 5.22 1.83 1.3 1.22 1.95 2.87 1.95 4.95v7.92c0 2.12-.65 3.8-1.95 5.04-1.28 1.22-3.02 1.83-5.22 1.83zm0-3.63c.9 0 1.61-.27 2.13-.81.54-.56.81-1.3.81-2.22v-8.25c0-.92-.27-1.65-.81-2.19-.52-.56-1.23-.84-2.13-.84-.88 0-1.59.28-2.13.84-.52.54-.78 1.27-.78 2.19v8.25c0 .92.26 1.66.78 2.22.54.54 1.25.81 2.13.81z" fill="#6E9AAD"/><path d="M256.502 28.512c0 1.968-.588 3.612-1.764 4.932-1.176 1.296-2.772 2.148-4.788 2.556-.12.048-.18.12-.18.216l.072 2.16c0 .168-.048.3-.144.396a.535.535 0 01-.396.144h-4.824a.535.535 0 01-.396-.144.535.535 0 01-.144-.396l.072-2.232c0-.12-.048-.192-.144-.216-1.992-.504-3.552-1.428-4.68-2.772-1.128-1.344-1.692-2.988-1.692-4.932v-.504c0-.168.048-.3.144-.396a.535.535 0 01.396-.144h5.328c.168 0 .3.048.396.144a.535.535 0 01.144.396v.216c0 .672.336 1.272 1.008 1.8.672.504 1.572.756 2.7.756.864 0 1.476-.18 1.836-.54.384-.384.576-.804.576-1.26 0-.528-.24-.924-.72-1.188-.456-.264-1.284-.576-2.484-.936l-1.044-.324c-2.256-.72-4.164-1.68-5.724-2.88-1.536-1.2-2.304-2.94-2.304-5.22 0-1.824.552-3.372 1.656-4.644 1.128-1.296 2.616-2.184 4.464-2.664.096-.024.144-.096.144-.216l-.072-2.556c0-.168.048-.3.144-.396a.535.535 0 01.396-.144h4.824c.168 0 .3.048.396.144a.535.535 0 01.144.396l-.072 2.664c0 .096.048.156.144.18 1.944.528 3.504 1.5 4.68 2.916 1.176 1.416 1.764 3.096 1.764 5.04v.324c0 .168-.048.3-.144.396a.535.535 0 01-.396.144h-5.292a.535.535 0 01-.396-.144.535.535 0 01-.144-.396v-.036c0-.72-.312-1.368-.936-1.944-.624-.6-1.464-.9-2.52-.9-.744 0-1.332.156-1.764.468-.432.312-.648.744-.648 1.296 0 .432.156.804.468 1.116.312.288.792.576 1.44.864.648.264 1.644.612 2.988 1.044.192.072.996.336 2.412.792a7.562 7.562 0 013.6 2.412c.984 1.152 1.476 2.556 1.476 4.212zM261.329 36c-.192 0-.336-.048-.432-.144-.072-.12-.072-.276 0-.468l7.452-18.576c.024-.048.012-.096-.036-.144-.024-.048-.06-.072-.108-.072h-4.752c-.12 0-.18.06-.18.18v1.62c0 .168-.048.3-.144.396a.535.535 0 01-.396.144h-4.392a.535.535 0 01-.396-.144.535.535 0 01-.144-.396l.036-7.056c0-.168.048-.3.144-.396a.535.535 0 01.396-.144h16.632c.168 0 .3.048.396.144a.535.535 0 01.144.396v4.896c0 .168-.048.396-.144.684l-7.38 18.648c-.096.288-.312.432-.648.432h-6.048zm42.909-12.132c.168 0 .3.048.396.144a.535.535 0 01.144.396v4.896c0 .168-.048.3-.144.396a.535.535 0 01-.396.144h-1.476c-.12 0-.18.06-.18.18v5.436c0 .168-.048.3-.144.396a.535.535 0 01-.396.144h-5.688a.535.535 0 01-.396-.144.535.535 0 01-.144-.396v-5.436c0-.12-.06-.18-.18-.18h-11.232a.535.535 0 01-.396-.144.535.535 0 01-.144-.396v-3.816c0-.24.048-.468.144-.684l5.868-13.608c.096-.264.3-.396.612-.396h6.084c.192 0 .324.06.396.18.072.12.072.276 0 .468l-5.22 12.204a.153.153 0 000 .144c.024.048.06.072.108.072h3.78c.12 0 .18-.06.18-.18v-3.564c0-.168.048-.3.144-.396a.535.535 0 01.396-.144h5.688c.168 0 .3.048.396.144a.535.535 0 01.144.396v3.564c0 .12.06.18.18.18h1.476zm12.191 12.564c-2.856 0-5.112-.792-6.768-2.376-1.632-1.584-2.448-3.768-2.448-6.552v-8.208c0-2.712.816-4.848 2.448-6.408 1.656-1.584 3.912-2.376 6.768-2.376s5.112.792 6.768 2.376c1.656 1.56 2.484 3.696 2.484 6.408v8.208c0 2.76-.828 4.944-2.484 6.552-1.656 1.584-3.912 2.376-6.768 2.376zm0-5.796c.768 0 1.368-.24 1.8-.72.456-.504.684-1.188.684-2.052V19.08c0-.864-.228-1.536-.684-2.016-.432-.504-1.032-.756-1.8-.756s-1.368.252-1.8.756c-.432.48-.648 1.152-.648 2.016v8.784c0 .864.216 1.548.648 2.052.432.48 1.032.72 1.8.72zm20.637 5.796c-2.856 0-5.112-.792-6.768-2.376-1.632-1.584-2.448-3.768-2.448-6.552v-8.208c0-2.712.816-4.848 2.448-6.408 1.656-1.584 3.912-2.376 6.768-2.376s5.112.792 6.768 2.376c1.656 1.56 2.484 3.696 2.484 6.408v8.208c0 2.76-.828 4.944-2.484 6.552-1.656 1.584-3.912 2.376-6.768 2.376zm0-5.796c.768 0 1.368-.24 1.8-.72.456-.504.684-1.188.684-2.052V19.08c0-.864-.228-1.536-.684-2.016-.432-.504-1.032-.756-1.8-.756s-1.368.252-1.8.756c-.432.48-.648 1.152-.648 2.016v8.784c0 .864.216 1.548.648 2.052.432.48 1.032.72 1.8.72z" fill="#135C7D"/><rect x="62.5" y="79.5" width="476" height="2" rx="1" fill="#26DEFF" stroke="#26DEFF"/><circle cx="62" cy="81" r="9.5" fill="#26DEFF" stroke="#26DEFF"/><circle cx="174.5" cy="80.5" r="5" fill="#26DEFF" stroke="#26DEFF"/><circle cx="415.5" cy="80.5" r="5" fill="#26DEFF" stroke="#26DEFF"/><circle cx="292" cy="81" r="9.5" fill="#26DEFF" stroke="#26DEFF"/><circle cx="292" cy="81" r="6" fill="#fff"/><circle cx="62" cy="81" r="6" fill="#fff"/><circle cx="539" cy="81" r="9.5" fill="#26DEFF" stroke="#26DEFF"/><circle cx="539" cy="81" r="6" fill="#fff"/></svg><svg fill="none" viewBox="0 0 132 94" id="roof-complex" xmlns="http://www.w3.org/2000/svg"><path fill-rule="evenodd" clip-rule="evenodd" d="M33.243 43.84a2 2 0 012 2v38.466a2 2 0 11-4 0V45.841a2 2 0 012-2zM31.243 91.529a2 2 0 012-2h66.433a2 2 0 010 4H33.243a2 2 0 01-2-2zM99.675 43.84a2 2 0 012 2v38.466a2 2 0 11-4 0V45.841a2 2 0 012-2zM65.325.382a2 2 0 012.353.001l39.558 28.807a2.001 2.001 0 01-2.355 3.234L66.5 4.474 28.035 32.424a2 2 0 01-2.351-3.236L65.325.382z" fill="#75ACC6"/><path fill-rule="evenodd" clip-rule="evenodd" d="M54.255 56.59a2 2 0 012-2h20.492a2 2 0 012 2V91.53a2 2 0 01-2 2H56.255a2 2 0 01-2-2V56.59zm4 2V89.53h16.492V58.59H58.255zM57.95 26.776a2 2 0 012-2h13.102a2 2 0 012 2V39.29a2 2 0 01-2 2H59.95a2 2 0 01-2-2V26.776zm4 2v8.514h9.102v-8.514H61.95zM97.675 91.529a2 2 0 012-2h30.151a2 2 0 010 4H99.675a2 2 0 01-2-2zM0 91.529a2 2 0 012-2h31.243a2 2 0 010 4H2a2 2 0 01-2-2zM13.32 12.45a2 2 0 011.866-1.28h35.946a2 2 0 110 4H16.558L7.813 37.826a2 2 0 01-3.731-1.44L13.32 12.45zM80.542 13.17a2 2 0 012-2h36.114a2 2 0 011.838 1.212l10.079 23.516a2 2 0 01-3.677 1.576l-9.559-22.304H82.542a2 2 0 01-2-2z" fill="#75ACC6"/><path fill-rule="evenodd" clip-rule="evenodd" d="M5.948 43.84a2 2 0 012 2V89.85a2 2 0 11-4 0V45.841a2 2 0 012-2zM128.734 43.84a2 2 0 012 2v45.52a2 2 0 11-4 0V45.84a2 2 0 012-2zM19.092 25.323a2 2 0 012.38-.003l13.542 10a2 2 0 01-2.376 3.218l-12.35-9.12-12.27 9.116a2 2 0 01-2.385-3.21l13.459-10zM112.243 24.3a1.999 1.999 0 012.322 0l15.422 11a1.999 1.999 0 11-2.322 3.257l-14.261-10.172-12.416 8.858a2 2 0 01-2.323-3.256l13.578-9.686z" fill="#75ACC6"/></svg><svg fill="none" viewBox="0 0 110 90" id="roof-moderate" xmlns="http://www.w3.org/2000/svg"><path fill-rule="evenodd" clip-rule="evenodd" d="M8.24 32.83a2 2 0 012 2v52.703a2 2 0 01-4 0V34.83a2 2 0 012-2zM38.926.372a2 2 0 012.327.003L78.855 27.33a2 2 0 11-2.33 3.25L40.084 4.46 3.163 30.823A2 2 0 01.838 27.57L38.926.372zM27.553 53.98a2 2 0 012-2h19.773a2 2 0 012 2v33.473a2 2 0 01-2 2H29.553a2 2 0 01-2-2V53.98zm4 2v29.473h15.773V55.98H31.553z" fill="#75ACC6"/><path fill-rule="evenodd" clip-rule="evenodd" d="M31.118 31.128a2 2 0 012-2H45.76a2 2 0 012 2v11.99a2 2 0 01-2 2H33.118a2 2 0 01-2-2v-11.99zm4 2v7.99h8.642v-7.99h-8.642zM0 87.533a2 2 0 012-2h105.512a2 2 0 010 4H2a2 2 0 01-2-2zM53.242 12.863a2 2 0 012-2H82.39a2 2 0 011.09.323l25.122 16.334a2 2 0 01-2.181 3.354L81.797 14.863H55.242a2 2 0 01-2-2z" fill="#75ACC6"/><path fill-rule="evenodd" clip-rule="evenodd" d="M101.596 60.83a2 2 0 012 2v24.22a2 2 0 01-4 0V62.83a2 2 0 012-2zM72.017 51.9a2 2 0 012 2v13.356a2 2 0 11-4 0V53.9a2 2 0 012-2zM101.596 32.507a2 2 0 012 2v12.23a2 2 0 01-4 0v-12.23a2 2 0 012-2zM101.596 52.865a2 2 0 012 2v.241a2 2 0 01-4 0v-.241a2 2 0 012-2z" fill="#75ACC6"/></svg><svg fill="none" viewBox="0 0 81 74" id="roof-simple" xmlns="http://www.w3.org/2000/svg"><path fill-rule="evenodd" clip-rule="evenodd" d="M8.12 16.873a2 2 0 012 2v50.47h61.684a2 2 0 010 4H8.12a2 2 0 01-2-2v-52.47a2 2 0 012-2zM39.434.082a2 2 0 011.136 0l38.001 11.25a2 2 0 01-1.135 3.835L40.002 4.086 2.568 15.166a2 2 0 11-1.136-3.835L39.434.082z" fill="#75ACC6"/><path fill-rule="evenodd" clip-rule="evenodd" d="M28.18 37.917a2 2 0 012-2h19.644a2 2 0 012 2v33.426a2 2 0 01-2 2H30.18a2 2 0 01-2-2V37.917zm4 2v29.426h15.644V39.917H32.18zM31.722 15.097a2 2 0 012-2h12.56a2 2 0 012 2V27.07a2 2 0 01-2 2h-12.56a2 2 0 01-2-2V15.097zm4 2v7.972h8.56v-7.972h-8.56z" fill="#75ACC6"/><path fill-rule="evenodd" clip-rule="evenodd" d="M0 71.343a2 2 0 012-2h76.004a2 2 0 010 4H2a2 2 0 01-2-2z" fill="#75ACC6"/><path fill-rule="evenodd" clip-rule="evenodd" d="M73.575 44.996a2 2 0 012 2v24.186a2 2 0 11-4 0V46.996a2 2 0 012-2zM73.576 16.713a2 2 0 012 2v12.213a2 2 0 01-4 0V18.713a2 2 0 012-2zM73.575 37.042a2 2 0 012 2v.08a2 2 0 11-4 0v-.08a2 2 0 012-2z" fill="#75ACC6"/></svg><svg fill="none" viewBox="0 0 102 104" id="square" xmlns="http://www.w3.org/2000/svg"><path stroke="#26DEFF" stroke-width="5" stroke-linecap="round" stroke-linejoin="round" d="M3 3h24v25H3zM3 76h24v25H3zM75 3h24v25H75zM41 41h20v21H41zM75 76h24v24H75zM15 28v47M75 15H29M87 28v46M75 88H28"/></svg><svg fill="none" viewBox="0 0 96 68" id="stories-one" xmlns="http://www.w3.org/2000/svg"><path fill-rule="evenodd" clip-rule="evenodd" d="M7.715 14.39a2 2 0 012 2v47.39h75.788V43.67a2 2 0 114 0v22.11a2 2 0 01-2 2H7.715a2 2 0 01-2-2V16.39a2 2 0 012-2zM87.502 14.315a2 2 0 012 2V30.18a2 2 0 01-4 0V16.315a2 2 0 012-2zM47.462.042a2 2 0 01.823.001l45.421 9.593a2 2 0 01-.827 3.914L47.87 4.044 2.41 13.55a2 2 0 01-.818-3.915L47.462.042z" fill="#75ACC6"/><path fill-rule="evenodd" clip-rule="evenodd" d="M36.697 34.602a2 2 0 012-2h18.35a2 2 0 012 2V65.78a2 2 0 01-2 2h-18.35a2 2 0 01-2-2V34.602zm4 2V63.78h14.35V36.602h-14.35z" fill="#75ACC6"/><path fill-rule="evenodd" clip-rule="evenodd" d="M.226 65.78a2 2 0 012-2h91.292a2 2 0 010 4H2.226a2 2 0 01-2-2zM87.502 35a2 2 0 012 2v.15a2 2 0 11-4 0V37a2 2 0 012-2zM40.006 16.315a2 2 0 012-2h11.731a2 2 0 012 2v7.27a2 2 0 01-2 2h-11.73a2 2 0 01-2-2v-7.27zm4 2v3.27h7.731v-3.27h-7.73z" fill="#75ACC6"/></svg><svg fill="none" viewBox="0 0 106 119" id="stories-three" xmlns="http://www.w3.org/2000/svg"><path fill-rule="evenodd" clip-rule="evenodd" d="M14.315 43.19a2 2 0 012-2h73.3a2 2 0 010 4h-73.3a2 2 0 01-2-2z" fill="#75ACC6"/><path fill-rule="evenodd" clip-rule="evenodd" d="M7.696 27.11a2 2 0 012 2v85.55H95.71V94.566a2 2 0 014 0v22.094a2 2 0 01-2 2H7.696a2 2 0 01-2-2V29.11a2 2 0 012-2zM97.71 27.036a2 2 0 012 2v52.05a2 2 0 11-4 0v-52.05a2 2 0 012-2zM52.21.149a2 2 0 011.518.002l50.516 20.82a2.001 2.001 0 01-1.525 3.698L52.962 4.162 2.756 24.672a2 2 0 01-1.512-3.704L52.209.148z" fill="#75ACC6"/><path fill-rule="evenodd" clip-rule="evenodd" d="M41.822 85.504a2 2 0 012-2H62.11a2 2 0 012 2v31.155a2 2 0 01-2 2H43.822a2 2 0 01-2-2V85.504zm4 2v27.155H60.11V87.504H45.822z" fill="#75ACC6"/><path fill-rule="evenodd" clip-rule="evenodd" d="M.225 116.66a2 2 0 012-2h101.481a2 2 0 110 4H2.226a2 2 0 01-2-2zM97.71 85.901a2 2 0 012 2v.076a2 2 0 11-4 0V87.9a2 2 0 012-2zM13.866 72.548a2 2 0 012-2h73.3a2 2 0 110 4h-73.3a2 2 0 01-2-2zM44.97 20.648a2 2 0 012-2h11.692a2 2 0 012 2v7.265a2 2 0 01-2 2H46.969a2 2 0 01-2-2v-7.265zm4 2v3.265h7.692v-3.265h-7.693zM44.97 53.9a2 2 0 012-2h11.692a2 2 0 012 2v7.265a2 2 0 01-2 2H46.969a2 2 0 01-2-2V53.9zm4 2v3.265h7.692V55.9h-7.693z" fill="#75ACC6"/></svg><svg fill="none" viewBox="0 0 95 95" id="stories-two" xmlns="http://www.w3.org/2000/svg"><path fill-rule="evenodd" clip-rule="evenodd" d="M7.66 27.76a2 2 0 012 2v60.411h75.012V69.962a2 2 0 114 0v22.21a2 2 0 01-2 2H7.66a2 2 0 01-2-2V29.76a2 2 0 012-2zM86.672 27.685a2 2 0 012 2v26.726a2 2 0 01-4 0V29.685a2 2 0 012-2zM46.59.69a2 2 0 011.68.004l44.98 20.93a2 2 0 01-1.687 3.626L47.423 4.71 2.837 25.253a2 2 0 11-1.674-3.633L46.59.69z" fill="#75ACC6"/><path fill-rule="evenodd" clip-rule="evenodd" d="M36.341 60.853a2 2 0 012-2h18.17a2 2 0 012 2v31.318a2 2 0 01-2 2h-18.17a2 2 0 01-2-2V60.853zm4 2v27.318h14.17V62.853h-14.17z" fill="#75ACC6"/><path fill-rule="evenodd" clip-rule="evenodd" d="M.223 92.171a2 2 0 012-2H92.63a2 2 0 110 4H2.223a2 2 0 01-2-2zM86.672 61.262a2 2 0 012 2v.151a2 2 0 01-4 0v-.151a2 2 0 012-2zM13.777 45.57a2 2 0 012-2h62.406a2 2 0 010 4H15.777a2 2 0 01-2-2zM39.618 22.307a2 2 0 012-2h11.617a2 2 0 012 2v7.303a2 2 0 01-2 2H41.618a2 2 0 01-2-2v-7.303zm4 2v3.303h7.617v-3.303h-7.617z" fill="#75ACC6"/></svg></svg>